<?xml version="1.0" encoding="utf-8"?>
<!-- Generator: Adobe Illustrator 26.1.0, SVG Export Plug-In . SVG Version: 6.00 Build 0)  -->
<svg version="1.1" id="Layer_1" xmlns="http://www.w3.org/2000/svg" xmlns:xlink="http://www.w3.org/1999/xlink" x="0px" y="0px"
	 viewBox="0 0 283.5 283.5" style="enable-background:new 0 0 283.5 283.5;" xml:space="preserve">
<style type="text/css">
	.st0{fill:#FFFFFF;}
	.st1{fill:#E6E6E6;}
	.st2{fill:#CDCDCD;}
	.st3{fill:url(#SVGID_1_);}
	.st4{fill:url(#SVGID_00000032632798649577080900000008246969447413595827_);}
	.st5{fill:url(#SVGID_00000035508566752708864120000013779096963588253100_);}
	.st6{fill:#181819;}
	.st7{fill:#040405;}
	.st8{fill:#008A97;}
	.st9{fill:#FAC8B8;}
	.st10{fill:#393939;}
	.st11{fill:#C18B52;}
	.st12{opacity:0.75;fill:#E6E6E6;}
	.st13{fill:#263E53;}
	.st14{fill:#516575;}
	.st15{fill:#1C1B20;}
	.st16{fill:#37363B;}
	.st17{fill:#2B2A2F;}
	
		.st18{fill-rule:evenodd;clip-rule:evenodd;fill:#E1E1E1;stroke:#F9F9F9;stroke-width:0.25;stroke-linecap:round;stroke-linejoin:round;}
	.st19{fill:#D5E6F7;}
	.st20{fill:#80357F;}
	.st21{fill:#E52F32;}
	.st22{fill:#435D89;}
	.st23{fill:#C79763;}
	.st24{opacity:0.12;}
	.st25{fill:#943C00;}
	.st26{fill:#B14B00;}
	.st27{opacity:0.3;fill:#C18B52;}
	.st28{fill:#D4AE86;}
	.st29{fill:#878787;}
	.st30{fill:#A51627;}
	.st31{fill:#CDA275;}
	.st32{fill:#1D1D1E;}
	.st33{opacity:0.23;}
	.st34{fill:#E7E7E7;}
	.st35{fill:none;}
	.st36{fill:#232828;}
	.st37{fill:#131616;}
	.st38{fill:#343A3A;}
	.st39{fill:#353A4E;}
	.st40{fill:#767D93;}
	.st41{fill:#18191E;}
	.st42{fill:#DECA44;}
	.st43{fill:#F7BF23;}
	.st44{fill:#45464C;}
	.st45{fill:#2C3133;}
	.st46{fill:#1E2123;}
	.st47{fill:#414547;}
	.st48{fill:#131516;}
	.st49{fill:#4F4F50;}
	.st50{fill:#2C3A3F;}
	.st51{fill:#CFCFCF;}
	.st52{fill:#28353A;}
	.st53{fill:#B4B4B4;}
	.st54{fill:#DFC3A5;}
	.st55{fill:#E9D6C2;}
	.st56{fill:#939598;}
	.st57{fill:#BCBEC0;}
	.st58{fill:#D1D3D4;}
	.st59{enable-background:new    ;}
	.st60{fill:#A7A9AC;}
	.st61{fill:#F1F2F2;}
	.st62{fill:#16285B;}
	.st63{fill:#FFBC00;}
	.st64{fill:#673AB7;}
	.st65{fill:#F7D5B9;}
	.st66{fill:#835ADB;}
	.st67{fill:none;stroke:#51443D;stroke-width:0.7405;stroke-miterlimit:10;}
	.st68{fill:#00D9EA;}
	.st69{fill:#FFFFFF;stroke:#E7A646;stroke-width:0.3211;stroke-miterlimit:10;}
	.st70{fill:#000062;}
	.st71{fill:#0098A8;}
	.st72{fill:#FFC8A4;}
	.st73{opacity:0.4;fill:#393939;}
	.st74{clip-path:url(#SVGID_00000116232808846930481210000010501319290200428439_);}
	.st75{clip-path:url(#SVGID_00000122698279808768614370000000370383792996412821_);}
	.st76{clip-path:url(#SVGID_00000089548259923951651350000016318419390054844825_);enable-background:new    ;}
	.st77{fill:#EFF2F4;}
	.st78{clip-path:url(#SVGID_00000072275979596283343370000016819834302462708414_);enable-background:new    ;}
	.st79{clip-path:url(#SVGID_00000108273613708660046310000003458179003105169828_);enable-background:new    ;}
	.st80{fill:#B8BBBC;}
	.st81{fill:#808283;}
	.st82{clip-path:url(#SVGID_00000054987103157587452190000014416959763412067717_);enable-background:new    ;}
	.st83{opacity:0.4;fill:#FFFFFF;}
	.st84{clip-path:url(#SVGID_00000124860181549129006520000012040147038602455730_);}
	.st85{clip-path:url(#SVGID_00000081635508561262194410000015540854443114246025_);}
	.st86{clip-path:url(#SVGID_00000168836795640058860100000015774603532035470756_);enable-background:new    ;}
	.st87{clip-path:url(#SVGID_00000011002543299131762960000005940900902928888504_);enable-background:new    ;}
	.st88{clip-path:url(#SVGID_00000125570546811796517540000006777790561937966000_);enable-background:new    ;}
	.st89{clip-path:url(#SVGID_00000147202829080717516130000016618889561590995612_);enable-background:new    ;}
	.st90{fill:#2B2B2B;}
	.st91{fill:#B73026;}
	.st92{fill:#616061;}
	.st93{fill:#D1352E;}
	.st94{fill:#444444;}
	.st95{fill:#1D1D1B;}
	.st96{fill:#525252;}
	.st97{fill:#E6332C;}
	.st98{fill:#424243;}
	.st99{fill:#7D9ACF;}
	.st100{fill:#232322;}
	.st101{fill:#FFCC00;}
	.st102{fill:#0072AE;}
	.st103{fill:#354E8D;}
	.st104{fill:#283A6A;}
	.st105{fill:#6778B6;}
	.st106{fill:#2981BC;}
	.st107{fill:#FDE1D1;}
	.st108{fill:#4C92CE;}
	.st109{fill:#1D507C;}
	.st110{fill:#3593D1;}
	.st111{fill:#3394D2;}
	.st112{fill:#CD575E;}
	.st113{fill:#B01B32;}
	.st114{fill:#646564;}
	.st115{opacity:0.72;}
	.st116{fill:#999999;}
	.st117{opacity:0.64;}
	.st118{opacity:0.22;}
	.st119{fill:#464746;}
	.st120{fill:#343534;}
	.st121{fill:#777877;}
	.st122{fill:#4B4C4B;}
	.st123{fill:#727272;}
	.st124{fill:#8C8C8C;}
	.st125{fill:#9C9C9C;}
	.st126{fill:#D5D5D5;}
	.st127{fill:#1A1A1A;}
	.st128{fill:#333333;}
	.st129{fill:#B3B3B3;}
	.st130{opacity:0.58;}
	.st131{fill:#CCCCCC;}
	.st132{fill:#286AA5;}
	.st133{fill:#EB5B60;}
	.st134{opacity:0.65;}
	.st135{fill:#AAB6D9;}
	.st136{fill:#2A2A2A;}
	.st137{fill:#5E5E5F;}
	.st138{fill:none;stroke:#040405;stroke-width:0.5;stroke-miterlimit:10;}
	.st139{opacity:0.9;}
	.st140{fill:#959595;}
	.st141{fill:#A1A1A1;}
	.st142{fill:#555555;}
	.st143{fill:#FFC8AB;}
</style>
<g>
	<g>
		<path class="st9" d="M132.5,115.7c0,0-15.9,17.1-30,24.5c0,0-1.7,0.5-2.8,2.3c-0.5,0.8-2.4,1.9-1.9,0.4s-0.5-1.1-1.5-0.5
			c-1,0.6-2.2,1.3-2.2,1.3s-0.8-1.3,2.5-3.2c3.4-1.9,3.8-1.7,4.9-2.6c0.8-0.7,12.8-11.9,12.8-11.9l13.5-14.9
			C127.7,111.1,132.3,112.8,132.5,115.7z"/>
		<g>
			<path class="st0" d="M117,122.4c0,0,3-2.5,2.5-5.8c-0.5-3.3-0.7-7.2-0.7-7.2s4.9,11.8,5.7,14.7l-2,2
				C123.1,125.2,118.4,120.8,117,122.4z"/>
		</g>
		<path class="st0" d="M131.6,200.1l-0.1,1c0,0,0,1.5,0.2,2c0.2,0.5,0,0.9,0,0.9l-4.1,2.2l-0.6-1.7c0,0,1.4-1.2,1.4-1.8
			c0.1-0.5,0-1.8,0-1.8l-0.1-2.9L131.6,200.1z"/>
		<path class="st11" d="M127.6,208.1c2.3-0.1,4.9-1,4.6-2.8c-0.1-0.7-0.5-1.9-0.5-1.9c-1.2,1.4-4.5,1-4.6,0.7c0,0-9.2,1.6-9.4,2.7
			c0,0.1,0,0.4,0,0.5C118,208.3,125.5,208.1,127.6,208.1z"/>
		<path class="st0" d="M146.2,198.4c0,0,0.3,1.3,0.8,2.4c0.2,0.6,0.8,1.9,0.8,1.9l-3,4.4c0,0-0.6-2.8-1.4-6c-0.2-0.7-1-2.9-1-2.9
			L146.2,198.4z"/>
		<path class="st11" d="M143.9,207.5c2.3-0.2,4.6-0.8,4.5-2.6c0-0.5-0.6-2.2-0.6-2.2c-0.8,0.5-2.1,1.2-3.7,1c0,0-10.2,2.3-10.6,3.3
			c0,0.1-0.1,0.4,0,0.5C133.6,208.6,141.6,207.7,143.9,207.5z"/>
		<path class="st6" d="M125.8,134.3c-6.7,16.7-6.8,31.7-4.1,39.7c1.8,5.4,6.7,25.5,6.7,25.5s2.1,0.5,3.2,0.5
			c-0.1-4.2-1.9-31.2-1-35.7c3.1-15.1,5.5-27.1,5.5-27.1L125.8,134.3z"/>
		<path class="st10" d="M150.3,135.4c2.8,8.8-10,29.1-9.5,32.8c0.8,5.9,5.6,30.7,5.6,30.7l-3.3,0.9c0,0-12.2-30.4-12.4-33.1
			c-0.2-4.5-0.2-18.7,1.7-25.5c0.6-2.3,2.3-9.1,2.3-9.1S145.7,121,150.3,135.4z"/>
		<path class="st7" d="M145.5,145.5c0,0,8.7,0.7,6.5-17c-1.8-14.7-8.1-20.5-21.4-27.8c-12.4-6.9-15.4,2.6-14.6,8
			c0.1,0.6,3.9,7,6.4,14.7c1.3,3.9,2.6,8.3,2.2,12.1c-0.4,4.4,18.4,9.3,18.4,9.3l1.3-8.8L145.5,145.5z"/>
		<path class="st9" d="M105,104.1c3.7,7.1,4.9,7.2,6.5,6.8c1.6-0.4,1.6-1.4,3.3-2.1c1.7-0.7,2.3,0.9,4.1,1.4c1.3,0.4,1.5-3.4,0.2-5
			c-1.3-1.6-1.7-3.4-4.4-2.4c-2.7,0.9-3.3-0.8-6.7-0.8C104.5,102,105,104.1,105,104.1z"/>
		<path class="st11" d="M104.5,100.2c-3,3.6,0.4,4.3,1.9,4.1c2.1-0.4,4.9,0.4,4.9,0.4c2-2.8,3.4,0.4,2.7,1.1c-1.1,0.9,3.9-1,5.7,3.1
			c1.8,4.1,5.3,2.7,6.6-1.2c1.2-3.5,2.7-7.5,6.1-5.8c3.4,1.7,9.9,6.3,12.4,9.3c4.2,5,6.3,12,6.3,12c0.4-2.7,3.7,1,4.7-2.6
			c1.6-5.5-3-12.4-9.2-13.3c-5.2-0.8-6.4-3.3-9.4-9c-3-5.7-13.4,0.9-17-0.5C109.3,93.5,108.6,95.2,104.5,100.2z"/>
		<path class="st9" d="M133.8,120.9c-3.4,10.9-5.3,15.5-14.9,19.9c-9.6,4.4-10.6,5.5-12.6,7.9c-2.1,2.4-4.8-2.2-3.6-3.2
			c0.3-0.3,2.3-0.9,3.6-1.8c0,0,1.8-1.2,5.1-2.9c1.2-0.7,12.6-7.5,13.2-9.7c1-4,2.3-12.1,2.3-12.1l4.6-1.9L133.8,120.9z"/>
		<path class="st0" d="M128.8,103.3c-2,4.1-2,15.7-2,15.7s5.8-1,7,1.9c0,0,2.7-6.3,2.2-9.9C135.5,107.5,130,100.9,128.8,103.3z"/>
	</g>
	<g>
		<polygon class="st2" points="75.5,171.9 86,204.8 85.4,205 73,171.3 		"/>
		<path class="st7" d="M101.4,198.5l5.7-0.7c0,0-0.7,2.7,0.1,3.3c2.8,2,6.2,2.7,6.2,2.7s-5.4,0.9-8.6,0.9c-3.1,0-4.1,0-4.1,0
			s0.4-1.7,0.5-3.5C101.3,199.3,101.4,198.5,101.4,198.5z"/>
		<path class="st7" d="M101.2,201.6c-2,3-1.1,5.3-0.9,5.6c2.2,0.4,3.3,0.2,5.1,0.2c0.1-0.4,0-0.5,0.1-0.9c0.8-0.1,3.4,0.1,4.1,0.3
			c0.7,0.2,3.9,0.8,4.9,0.8c2.2,0,4.4,0,6.4-0.6c0.2-0.9-0.2-1.5-1-2c-0.9-0.5-1.6-0.6-2.6-0.7c-1.6-0.2-2.8-0.5-4.3-1
			c-0.3-0.1-2.9-0.8-3.2-0.8c-0.2,0-1.2,1.8-5.7,0.7C103.3,203.2,101.1,202.4,101.2,201.6z"/>
		<path class="st7" d="M120.8,161.4c0,1.8-11.2,29.6-12.5,32.9c-0.4,1.1-1.4,4.2-1.6,5c-0.2,0.5-7,1-7,0.6c-0.3-4.7,0.5-12,1-16.3
			c0.7-6.1,4.4-12.9,4.7-13.7c0.3-0.8-4.4-0.5-16.5-1.4c-12.1-0.9-28.6,2.7-29.1-5.5c-0.4-8.2,14.9-11.6,31.4-10.5
			C107.6,153.7,120.8,158.2,120.8,161.4z"/>
		<polygon class="st2" points="97.6,154 96.9,207.4 98.6,207.7 99.6,154 		"/>
		<path class="st7" d="M80.1,200.9c0,0,1.3,2.2,1.1,3.5c-0.2,1.4-0.8,1.9-0.8,1.9s2.6,2.4,5.4,2.7c3,0.3,6-1.4,5.9-1.5
			c-0.3-0.1-6.5-3.1-6.6-4.5c-0.1-1.4,0.3-2.9,0.3-2.9L80.1,200.9z"/>
		<path class="st7" d="M80.9,205.1c-0.3,0.4-1.3,1.5-1.4,2.5c-0.1,0.7,0.2,1.5,0.5,2c0.2,0,1.1,0.4,3,0.6c0.2,0,0.2-0.5,0.3-0.5
			c4.4,1.7,6.1,2.3,9.4,1.5c0.4-0.1,2.5-0.7,2.9-0.9c0.3-0.2,0.6-0.6,0.5-1c-0.1-0.3-0.3-0.6-0.6-0.7c-1-0.4-4.4-2.2-6.9-3
			c-0.5,0.8-1.8,1.7-4.3,1.4C82.8,206.8,81.6,206.4,80.9,205.1z"/>
		<path class="st9" d="M89.1,135.2c0.3,0.9,1.6,8.3,3,9.4c1.4,1.1,12.4,2.6,16.9,4.6c4.4,2,2.7,2.3,2.7,2.3l-25.2,1.5
			c0,0-3.5-1.7-5.5-11.2c-2-9.6,0.8-10.8,0.8-10.8S87.8,130.5,89.1,135.2z"/>
		<polygon class="st2" points="51,172.3 41.2,205.5 42.1,205.5 54.7,171.9 		"/>
		<path class="st2" d="M53.1,131.8c5.8-0.1,10.8,7.3,13.2,12c2.4,4.8,14.6,31.6,14.6,31.6s-9.9-0.3-16.8-0.4s-20.5,3.5-22.3-5.3
			c-1.8-8.9,4.7-17.5,3.7-23.9C44.5,139.5,43.7,131.9,53.1,131.8z"/>
		<path class="st11" d="M70.2,116.3c0.2,2,2.4,5.7,6,5.9c3.6,0.2,2.2-3.2,2.1-3.9c3.6,0.3,5.8,3.1,6.9,4.9c1.6,2.5,2.5,6.2,2.8,7.1
			c0.3,0.9-3.2,3-3.2,3s-0.9,8.9-1.6,12.7c-0.6,3.8-1.2,10.3-1.2,10.3s-9.2-0.9-18.3,0c-9.1,0.9-11.9,0.2-11.9,0.2s1.7-26.1,6.1-33
			C62.4,116.7,70.2,116.3,70.2,116.3z"/>
		<polygon class="st10" points="80.8,152.9 99.8,153.1 100.1,151.7 81,151.8 		"/>
		<path class="st9" d="M76.4,106.4c-0.4,0.7-4.1,5.7-7,10.1c-0.8,1.2-0.7,2.7,0,4c1.2,2.3,4.8,3.3,8.4,3.1c5.4-0.3,2.7-4.8,2.7-4.8
			l-1.8-1.1l0.2-9.6L76.4,106.4z"/>
		<path class="st9" d="M84.7,103.5c0,0-0.8,4.1-1.2,7c-0.4,2.9-0.3,5.5-1.3,5.5c-1,0.1-4.8-0.1-5.5-2.2c-0.7-2.2,0.5-12,0.5-12
			L84.7,103.5z"/>
		<path class="st143" d="M77.7,106.3c0,0-1.1-1.8-2.2-0.6c-1.1,1.1,1.4,3.8,1.4,3.8L77.7,106.3z"/>
		<path class="st11" d="M77.3,106.4c0,0-0.4,5.1-0.4,6.4c0,1.3,0.9,2.8,3.4,3.1c2.5,0.3,2.6,0,2.7-0.5c0.2-1.1,0.4-3.9,0.4-3.9
			s-0.7-0.2-2.5-0.6c-1.8-0.3-2.2-0.4-2.7-1c-0.5-0.6-0.1-6.2-0.1-6.2L77.3,106.4z"/>
		<path class="st11" d="M83,135.4c0.2,0,1.8-0.6,3.4-0.6s2.9,0.2,2.9,0.2c0.4,1.3-1.3-5.7-3.3-9.7C84.8,122.7,83,135.4,83,135.4z"/>
		<polygon class="st10" points="94.6,153.1 94.8,151.7 114.2,152.1 114.2,153.8 		"/>
		<path class="st11" d="M84.3,104.3c1.4,0.1,2.2-1.5,2-3.2c-0.1-1.7-2.2-4.7-4.3-5.2c-2-0.5-1.4,1.7-0.9,2.4c-2.1-2.1-4.5-3-6.2-1.7
			c-2.2,1.6,0.4,4.5,1.3,5.2c-2.5-1.3-3.1-0.4-3.2,0.5c-0.2,0.8,0.5,2.5,2.9,4.2c0.2,0.2,1,0.7,1.6,0.4c0.5-0.2,0.3-1,0.5-1.6
			c0.1-0.6,0.1,0.1,0.6-0.2c0.5-0.3,0.1-2.2,0.8-2.4C81,102.4,81.8,104.1,84.3,104.3z"/>
		<path class="st143" d="M97.5,149.8c0,0,4.7-1.6,8.2-0.6c3.5,1,3.4,2.4,3.4,2.4L97.6,152L97.5,149.8z"/>
		<path class="st10" d="M93.6,160.7c1,1.8,2.6,7.8-2.1,20.2c-3.1,8.3-5.3,18.2-5.7,19.6c-0.1,0.5-6.5,1.3-6.7,0.9
			c-0.2-0.3-1.6-8.9-1.1-15.4c0.8-10.8,1.5-11.4,1.2-12.1c-0.3-0.7-9.2-1.3-15.9-1.6c-6.7-0.3-11.5-1.8-12.2-6.5s0.7-10.4,1-10.6
			c0.3-0.3,13.3-1.5,26.6,0.4C91.9,157.4,92.7,159.2,93.6,160.7z"/>
		<path class="st9" d="M63.5,120.3c2.9,0,3.5,3,4.3,12.6c0.8,9.6,1.1,12.6,2.4,14.3c0.7,0.9,14,0.9,21.7,1.2
			c7.6,0.4,11.7-0.2,15.9,2.9c-8.7,0.1-17.8,2.2-23.6,2.9c-5.8,0.7-22.2,4.1-25.7,0.4c-3.5-3.7-5.3-21.3-2.1-26.9
			C59.5,121.9,60.3,120.3,63.5,120.3z"/>
		<path class="st11" d="M54.3,135.5c2.2-0.5,9.7-1.5,15-1.3c0.4-6.4,0.7-15.2-5-15.3C58.4,118.7,54.7,130.1,54.3,135.5z"/>
		<polygon class="st10" points="100.5,135.2 93.9,152.5 113.8,153 121.7,135.4 		"/>
		<polygon class="st2" points="152.4,153.8 151.7,210.2 153.5,210.5 154.6,153.8 		"/>
		<g>
			<path class="st9" d="M168.8,196.7c0,0-0.4,0.8-0.3,2.6c0,1.8,1.1,3.9,1.2,4.6c0.2,1.6-10.8,0.5-10.8,0.5s5.7-2.1,5.8-4.2
				c0.1-2.1-0.2-3.5-0.2-3.5S168.3,196.8,168.8,196.7z"/>
			<path class="st7" d="M166.3,203.6c1.8-0.6,2.7-1.2,2.9-1.4c0.8,2,0.6,3.1,0.2,3.9c-1.2-0.1-2.5,0-3.7,0.1c0.1-0.3,0.1-0.7,0-1
				c-3.7-0.5-3.6,1.4-11,0.8c0-0.4,0.1-0.7,0.5-0.9c0.4-0.2,2.9-0.7,3.9-1.1c0.4-0.1,1.1-0.5,1.1-0.5
				C160.9,204.2,164.2,204.3,166.3,203.6z"/>
			<path class="st7" d="M189.8,111.1c0.9,1.2,2.4,1.6,3.8,2.1c1.4,0.5,2.8,1.4,3,2.9c0.1,1-0.4,2-0.1,2.9c0.3,1.3,1.9,2,2.6,3.2
				c0.9,1.5,0.2,3.5-1.2,4.6c-1.3,1.1-3.1,1.5-4.8,1.7c-3.3,0.4-6.7,0.5-10-0.3c-3.2-0.8-6.3-2.7-8.2-5.4c-0.8-1.2-1.4-2.6-2.1-3.8
				c-1-1.7-2.2-3.3-3.5-4.7c-0.2-0.2-0.4-0.4-0.4-0.7c0-0.3,0.2-0.6,0.5-0.5c-1.1-0.2-2.2-0.4-3.1-1.1c-0.9-0.6-1.6-1.7-1.6-2.8
				c0-1.4,1.1-2.5,2.4-3c1.2-0.5,2.6-0.6,4-0.6c2.7,0,5.5-0.1,8.2,0c1.7,0,3.5,0,5.2,0.3c1.5,0.3,3.2,0.9,4,2.2
				C188.9,108.8,189.1,110.1,189.8,111.1z"/>
			<polygon class="st10" points="132.6,134.9 145.7,151.4 137.7,151.9 125.7,134.7 			"/>
			<polygon class="st10" points="124.4,135.1 125.7,134.7 137.7,151.9 136.1,152.1 			"/>
			<polygon class="st10" points="164.5,152.1 136.9,151.9 145.2,150.7 161.8,151 			"/>
			<path class="st9" d="M178.7,129.8c-0.5,1.3-6,10.8-10.2,13.9c-4.6,3.3-11.7,5-14,4.4c-2.2-0.6-4.3-1.9-5.8-2.1
				c-1.5-0.2-2.8,1.2-3.1,1.7c-0.3,0.5,1.3-0.6,2.2-0.5c0.9,0.2,2.5,1.2,1.3,1.4c-1.2,0.2-1.9,0.6-2.3,1.2c-0.4,0.5,3.2,1.2,7.7,1.1
				c4.4-0.1,13.2,1.1,19.5-6.1c6.3-7.2,5.5-9,5.5-9L178.7,129.8z"/>
			<path class="st9" d="M171.2,120.3c0,0,1.5,1.7,3,5.2c2,4.5-0.2,11.3-0.2,11.3l7.2-10.5c0,0-5.5-6-5.6-6.3
				c-0.1-0.3-1.4-3.8-3.2-4.8C170.7,114.1,171.2,120.3,171.2,120.3z"/>
			<path class="st7" d="M184.7,130.3c1.4,2.4,4.6,12.9,8.3,18.6c3.7,5.7,9.1,10.8,8.4,17.7c-0.7,6.9-20.7,1-21.3-6.8
				c-0.7-7.8-1.6-10.8-4.3-15.2c-2.4-3.8-2.6-3.7-1.9-8.7c0.4-2.9,1-6.6,1-6.6s1.5-0.3,3.2-1.4c1.7-1,2.2-2.6,2.5-2.4
				C181.4,126,183.1,127.5,184.7,130.3z"/>
			<path class="st2" d="M204.2,205.9c-0.4-0.4-3.7-10-15-10.4c-11.3-0.4-16.4,10.6-16.4,10.6h0.8c0,0,5.5-9.1,15.1-9
				c9.6,0.1,14.7,8.9,14.7,8.9H204.2z"/>
			<path class="st11" d="M154.5,163.2c0.3,2.8,3.3,10.7,7.3,23.6c1.3,4.2,2.3,8.9,2.5,9.9c0.9,0.1,3.5,0.2,5.2-0.1
				c0.5-3.5,0.8-11.5-0.1-15.7c-1.3-5.8-4.3-11.2-4.4-11.4c-0.1-0.3,8.4-7.1,8.4-7.1s-1.4-5.5-8.7-5.3S154.3,160.9,154.5,163.2z"/>
			<path class="st9" d="M165.8,110.5c0.1,1,0.6,2.9,1.3,7c0.1,0.7-1.3,1.5-0.7,1.9c0.3,0.2,1.1,0.1,1.1,0.2c0.6,2.1,1.1,3.5,2.1,3.6
				c0.8,0.1,3-0.6,3.6-1.5c1.4-2,0.7-5.7-0.5-9.6C171,106.6,165.8,110.5,165.8,110.5z"/>
			<path class="st11" d="M155.8,161.9c0.5-2.1,4.9-5.2,25.3-6.1c18.6-0.8,20.3,5.8,20.2,9.4c-0.1,3.2-2.9,5.4-9,6.5
				c-6.3,1.1-18.3-1.4-19.7-1.3c-1.4,0.1-2.9-0.9-0.6,1.4c2.2,2.2,9.5,15.7,12,22.4c0,0-2,1.7-4.1,2.7c-0.5-0.6-5-7.3-7.9-11
				c-5.9-6.6-10.3-11.8-12.6-13.9C155.3,168.1,155.3,164,155.8,161.9z"/>
			<path class="st11" d="M194.3,150.9c0,0-2.4,2.6-7.4,3.9c-4.9,1.3-7.2,1.3-7.2,1.3v2.2c0,0,15.6,13.6,19,8.3
				c3.4-5.3,1-8.3-0.7-10.7C196.3,153.5,194.3,150.9,194.3,150.9z"/>
			<path class="st2" d="M190.1,173.3c0,0.5-0.4,23.1-0.4,23.1l-1.3-0.5l-0.8-22.5H190.1z"/>
			<path class="st2" d="M196.3,131.9c-2.3,1.2-3.4,2.6-2,9.9c1.4,7.3,7.7,21,2.5,26c-5.2,5-17,1.8-19.8,3.9s-2.2,4.2-0.7,3.8
				c1.6-0.4,3-2.7,10.3-1c7.3,1.7,13.4,0.2,15-8.7c0.9-5-2.1-15.7-3.8-23C196.1,135.4,198,131,196.3,131.9z"/>
			<polygon class="st2" points="166.3,152.9 166.1,156 83.8,155.9 83.8,152.9 			"/>
			<path class="st143" d="M173.1,116c-0.1-0.6-0.2-1.3-0.1-1.9c0.2-0.6,0.8-1.1,1.4-1c0.5,0.1,0.8,0.6,0.9,1c0.1,0.5,0,1,0,1.5
				c-0.1,0.4-0.1,0.8-0.4,1.2c-0.2,0.3-0.6,0.6-1,0.5C173.4,117.2,173.2,116.5,173.1,116z"/>
			<path class="st7" d="M179.3,109c-1.2-0.9-2.6-1.7-4.1-2.1c-1-0.2-1.9-0.3-2.9-0.3c-2.9,0.1-5.9,1.6-7,4.2c0.4,1,1.6,1.6,2.7,1.8
				c1.1,0.3,2.3,0.4,3.2,1.1c1,0.8,1.5,2,2.1,3.2c0.9,2,4.8,8.3,8.1,8.9c1.8,0.3,6.3,0.6,6.1-4.1c-0.1-1.8-4-6.9-4.7-8.5
				C182,111.6,180.7,110.2,179.3,109z"/>
			<path class="st10" d="M158.4,152.1l0,1.2c0,0-22.5,0-22.5-0.1c0-0.1,0.1-1.1,0.1-1.1l1.3-0.2L158.4,152.1z"/>
			<path class="st9" d="M183.6,194.6l-3.1,2.1c0,0,0.8,0.5,1.2,3.3c0.5,2.9-0.7,5.6-1.3,6.3c-0.6,0.7,3.3-0.8,5.4-4.2
				c1.7-2.7,1.4-3.1,1.4-3.1s-1.8-0.7-2.8-2.2C183.7,195.3,183.6,194.6,183.6,194.6z"/>
			<path class="st7" d="M177.5,207.6c0.4-0.1,2.2-0.6,2.5-0.9c0.3-0.2,0.8-0.9,0.8-0.9s1-0.1,1.3-0.3c0.4-0.2,0.8-0.6,1.2-0.9
				c0.9-0.7,1.1-1.3,1.7-2.4c0.5-1,0.9-3.2,0.9-4c2.3,0.5,3.2,2.7,3.2,2.8c-0.8,1.6-1.8,3.1-1.9,3.1c-0.1,0-0.2-0.1-0.2-0.1
				c-0.2-0.1-0.6-0.4-0.8-0.4c-0.3,0-0.3,0.1-0.5,0.4c-0.3,0.5-0.8,1-1,1.5c-0.1,0.3-1.3,2.1-1.6,2.2c-1.2,0.7-2.3,1.1-6.3,1
				C176.5,208.7,176.8,207.9,177.5,207.6z"/>
			<path class="st9" d="M152.9,150c-1.7-0.1-4.1-0.9-5.8-0.7c-2.8,0.4-3.5,1.7-3.5,1.7s10.6,2,16,2.1c5.4,0,12.2,0.5,17.3-5.6
				c5.1-6,7.7-9.1,7.8-11.9c0.1-2.8-2.5-4.6-4-4.6c-1.5,0-4.9,6.1-8,10.7c-3,4.5-5.4,6.3-10.5,7.4
				C155.8,150.5,154.4,150.1,152.9,150z"/>
			<path class="st10" d="M183.2,140.6c0,0-0.6-2.8-3.6-3.8c-3-1-4.8,0.3-4.8,0.3s2.9-8.3,6.7-6.7C185.4,132,188.1,135.4,183.2,140.6
				z"/>
		</g>
	</g>
	<g>
		<path class="st7" d="M217.7,203.7c0.8,1.2,1.3,2.7,1.3,4.2c-1.2,0.3-3.5,0.6-4.6,0.7c-0.1-0.3-0.1-0.8-0.8-0.9
			c-0.9,0-2.9,0.9-6,1.3c-4.3,0.5-3,0.5-6.5,0.3c0-0.3,0-0.7,0.3-1c0.2-0.2,1.3-0.4,1.5-0.5c2.1-0.5,3.4-1.2,5-2.6
			c0.4-0.3,0.7-0.9,1.1-1.2c0.7-0.4,1.5-0.4,2.4-0.5c1.6,0,3.1,0,4.7,0.1C216.6,203.5,217.2,203.5,217.7,203.7z"/>
		<path class="st7" d="M225.8,206.9c0.1,0.5,0.2,1.1,0.3,1.6c0,0.1,0,0.2,0,0.3c-0.1,0.1-0.2,0.2-0.3,0.2c-1.2,0.4-2.5,0.7-3.7,0.8
			c0-0.5-0.6-1.1-1-0.9c-0.2,0.1-3.4,1.3-3.8,1.3c-3.2,0.4-4.1,0.6-7.2,0.1c0-0.2,0-0.5,0.1-0.7c0.3-0.8,1.3-0.9,2.1-1
			c1.3-0.2,2.7-0.6,3.8-1.2c0.6-0.3,1.1-0.8,1.7-1.2c0.6-0.4,1.1-0.9,1.7-1.3c0.7-0.5,1.4-1.1,2.2-1.4c0.8-0.4,1.7-0.5,2.6-0.2
			c0.8,0.3,1.5,1.1,1.5,2c0,0.2-0.1,0.5-0.1,0.7C225.6,206.2,225.7,206.6,225.8,206.9z"/>
		<path class="st2" d="M218.6,198.1c-0.4-2.8,0.7-5.8-0.2-8.4c-0.3-1-1-1.9-1.3-2.9c-0.9-2.3-0.4-4.8-0.7-7.2
			c-0.3-2.4-1.3-4.6-2.7-6.6c-0.6-0.9-1.2-1.8-1.2-2.8c0-0.7,0.3-1.3,0.6-1.9c1.7-3.3,3.7-6.4,6-9.3c1.4-1.8,3-3.5,3.9-5.6
			c1.4-3,1.5-6.5,1.5-9.9c0-2.3,0-4.5,0-6.8c0-0.5,0-1-0.2-1.4c-0.3-0.5-0.8-0.8-1.3-1c-1.7-0.9-3.7-1.8-5.5-1.3
			c-1.1,0.3-2,1.1-3,1.7c-0.7,0.5-1.6,0.9-2.2,1.5c-0.6,0.6-1.1,1.4-1.5,2.2c-4,7.7-8.1,15.7-8.8,24.4c-0.7,8,1.6,16,3,23.9
			c1.1,6.1,1.7,12.3,1.7,18.5c3.2,0.8,6.7,0.8,9.9,0c0.6-0.2,1.2-0.3,1.7-0.7c0.9-0.7,1.2-2,1.1-3.2
			C219.2,200.3,218.7,199.2,218.6,198.1z"/>
		<path class="st29" d="M216.3,197c-0.3-1.6-1.2-3-1.3-4.6c-0.1-1.5,0.6-2.8,1-4.2c0.3-0.9,0.5-1.9,0.6-2.8c0.1,0.5,0.2,1,0.4,1.4
			c0.4,1,1,1.9,1.3,2.9c0.9,2.7-0.2,5.6,0.2,8.4c0.2,1.2,0.6,2.3,0.7,3.4c0.1,1.2-0.1,2.5-1.1,3.2c-0.5,0.4-1.1,0.6-1.7,0.7
			c-0.7,0.2-1.4,0.3-2.1,0.4C214.9,202.8,216.8,200,216.3,197z"/>
		<path class="st2" d="M216,207.2c1.9-3.8,0.3-8.7,1-13c0.2-1.3,0.6-2.6,0.8-3.9c0.3-2.5-0.4-5-0.6-7.6c-0.2-4.2,0.3-9.4,0.8-13.5
			c1-9.3,1.4-16.8,0.9-25.8c-0.2-2.7-0.2-5.6,1.3-7.8c1.2-1.9,3.3-2.8,5.4-2.9c2.1-0.1,4.3,0.8,6.3,1.7c4.1,10,4.9,21.7,2.3,32.3
			c-1.6,6.5-4.6,13-3.6,19.6c0.2,1.3,0.5,2.6,0.5,3.9c0,1.7-0.7,3.4-1.2,5c-1.2,3.6-1.9,7.5-2.1,11.4
			C223.7,206.5,219.8,206.5,216,207.2z"/>
		<path class="st7" d="M204.4,78.5c0,0.9,0.6,1.8,0.7,2.7c0.1,1.4-0.8,2.8-1.9,3.6c-1.1,0.8-2.5,1.1-3.8,1.6
			c-1.3,0.5-2.5,1.3-3.2,2.6c-0.2,0.4-0.3,0.9-0.3,1.4c0.1,1.2,1.3,1.9,2.3,2.2c3.5,1.2,7.3,1.2,10.9,0.7c3.2-0.4,6.6-1.1,9-3.4
			c0.3-0.3,0.7-0.7,1.1-0.9c0.4-0.3,0.8-0.4,1.2-0.6c2-1,3.7-2.8,4.5-5c0.8-2.2,0.9-4.7,0.1-7c-0.6-1.7-1.8-3.3-3.4-4
			c-1.6-0.7-3.7-0.3-4.7,1.2c-0.3,0.4-0.5,0.8-0.9,1.1c-0.3,0.2-0.7,0.3-1.1,0.3c-1.4,0.2-2.8,0.2-4.2,0.2c-1.3,0-2.7-0.2-4,0.3
			C205.6,75.8,204.4,77,204.4,78.5z"/>
		<path class="st9" d="M209.2,103.2c-0.5,0.4-0.2,1-0.2,1.7s0.2,1.3,0.4,1.9c0.3,1.1,0.8,2.1,1.2,3.1c0.2,0.4,0.4,0.9,0.8,1.2
			c0.6,0.4,1.4,0.5,2.1,0.5c2,0,4-0.1,5.9-0.5c1.9-0.4,3.8-1.2,5.3-2.4c2-1.6,3.2-4.1,3.3-6.6c0-0.3,0.7,0.3,0.5,0
			c-0.3-0.7-1.9-1.7-2.7-1.8c-1.6-0.3-3.2-1-4.4-2c-1.3-1.2-2-3-2.4-4.7c-0.5-2.1-0.9-4.3-0.1-6.3c-0.5-0.6-1.2-1-1.9-1
			c-0.8,0-1.6,0.3-2.1,0.9c-0.6,0.7-0.8,1.7-0.8,2.7c0,2.2,0.6,4.3,0.9,6.5c0.1,1,0.2,2.2-0.3,3.1
			C213.7,101.1,210.8,101.9,209.2,103.2z"/>
		<path class="st9" d="M219.8,87.1c-0.1,0.2-0.2,0.5-0.4,0.6c-0.1,0.1-0.3,0.1-0.5,0.1c-0.4,0.1-0.6,0.7-0.7,1.1
			c-0.3,1.5-1.1,3.1-2.6,3.7c-0.5,0.2-1.1,0.3-1.7,0.3c-0.5,0-1,0-1.4-0.3c-0.3-0.3-0.3-0.7-0.4-1.1c-0.3-3.1-0.4-6.2-0.3-9.4
			c0-0.6,0.1-1.2,0.4-1.8c0.2-0.4,0.6-0.7,1-1c1-0.7,2.3-1.2,3.4-0.7c1,0.4,1.5,1.6,1.6,2.6s0.1,2.2,0.3,3.2
			c0.6-0.1,1.1,0.3,1.3,0.9C220.1,86,220,86.6,219.8,87.1z"/>
		<path class="st9" d="M203.4,126.5c0.3-0.7,0.3-1.5,0.1-2.2c-0.1-0.6-0.3-1.3-0.7-1.8c-0.4-0.5-1-0.9-1.7-0.8
			c-0.3,0-0.6,0.1-0.7-0.2c-1.8,0.8-3.7,0.4-5.5-0.3c-1.8-0.6-3.5-1.5-5.1-2.6c-1.6-1.1-3.1-2.3-4.9-3.1c-0.6-0.3-1.4-0.5-1.9-0.1
			c-0.3,0.2-0.5,0.5-0.5,0.9c-0.1,0.6,0.1,1.3,0.5,1.8s0.9,0.9,1.4,1.2c2,1.4,4.3,3.6,6.3,5c1.2,0.8,4.9,3.3,6.7,3.8
			c1,0.3,2.5,0.5,3.5,0.3C202.1,128.1,203,127.4,203.4,126.5z"/>
		<path class="st7" d="M218.7,85.9c-0.3,0-0.5-0.3-0.6-0.5c-0.1-0.3,0-0.6,0-0.9c0.1-0.6-0.1-1.3-0.6-1.6c-0.3-0.2-0.6-0.2-0.9-0.4
			c-0.3-0.3-0.2-0.8-0.4-1.1c-0.2-0.3-0.6-0.4-0.9-0.4c-0.4,0-0.7,0.2-1,0.3c-1.2,0.5-2.6,0.9-3.8,0.3c-0.3-0.1-0.5-0.3-0.7-0.5
			c-0.4-0.5-0.3-1.3,0.1-1.9c0.4-0.6,1-0.9,1.6-1.2c1.2-0.7,2.6-1.2,3.9-1.3c1.9-0.1,3.8,0.6,5,2c1.3,1.4,1.9,3.3,1.6,5.2
			c-0.1,0.6-0.4,1.3-1,1.5c-0.5,0.2-1.1-0.1-1.6,0.2C219.1,85.6,218.9,85.9,218.7,85.9z"/>
		<path class="st11" d="M227.5,138.1c2.4-0.5,3.8-0.3,5.6-1.9c-0.8-2.3-1.9-5.1-3-7.2c-2.8-5.5-1.9-12-0.4-18c0.6-2.5,0.7-5,0.1-7.5
			c-0.2-1,0.9-1.1,0.2-1.8c-0.7-0.6-2.8-1.3-4.1-1.6c-0.3,1.1-0.6,2.3-1.3,3.3c-0.9,1.2-2.4,2.7-3.9,3c-2.6,0.7-4.1,0.7-6.4-0.5
			c-1.9-1-2.6-3.1-3-4.3c-0.8,0.5-2.2,1.5-2.7,1.9c-0.6,0.5-1.5,1.3-1.8,2c-0.5,1.1,1,3.5,1.2,4.7c1.6,7,2.3,11.8,2.3,19.2
			c0,2.9-0.6,6.6-0.3,9.4C210.4,138.9,212.9,141.1,227.5,138.1z"/>
		<path class="st11" d="M200.4,128.8c2.4-0.2,4.6-1.5,6-3.4c0.8-1,1.5-2.3,2-3.5c0.6-1.3,0.9-2.5,1.4-3.8c0.6-1.4,1.1-2.9,1.2-4.5
			c0.3-3.2-1.2-6.5-3-9.2c-1.8,1.2-2.7,3.3-3.3,5.3c-0.6,2.1-0.8,4.2-1.6,6.2c-0.7,2-1.8,4.6-3.8,5.3c0.9,2.2,1.2,4.2,1.3,6.6
			C200.6,128.2,200.6,128.6,200.4,128.8z"/>
		<path class="st9" d="M217,130.3c-0.3-0.2-0.3-0.6-0.3-0.9c0-1,0.2-2.2,1-2.8c0.7-0.6,1.7-0.6,2.6-0.5c2.9,0,5.9,0,8.8-0.1
			c1.1,0,2.2-0.1,3.2-0.4c1-0.3,2-1,2.5-1.9c1.7-0.6,3.6-0.4,5.1,0.5c0.7,0.4,1.4,1.1,1.6,1.9c0.2,0.8-0.1,1.6-0.7,2.2s-1.3,1-2,1.2
			c-1.1,0.3-2.2,0.5-3.3,0.6c-4.9,0.4-9.9,0.5-14.8,0.4C219.5,130.3,218.2,130.1,217,130.3z"/>
		<path class="st11" d="M227.5,100.7c2.6,0.8,4.8,2.6,6.5,4.7c1.7,2.1,3,4.5,4.3,6.9c2,3.8,3.9,7.9,4,12.2c0,1.2-0.1,2.5-0.7,3.5
			c-0.6,1.1-1.7,1.9-2.9,1.9c0-1.3-0.5-2.4-1.3-3.4c-0.7-1-1.7-1.8-2.8-2.5c0.4-1.7-1.5-4.7-2.6-6.1c-2.6-3.6-5.8-7.5-6-8.8
			c-0.2-1.3,0.3-2.6,0.6-3.9C227,103.7,227,102.1,227.5,100.7z"/>
		<path class="st9" d="M214,130.4c0.1-0.7,0.5-1.3,1-1.7c0,0,0,0,0,0c0-0.1,0.1-0.1,0.2-0.1c0.2-0.2,0.5-0.4,0.7-0.6
			c0.6-0.4,1.3-0.8,1.9-1.2c0.1-0.1,0.3-0.1,0.4-0.1c0.2-0.1,0.3-0.3,0.5-0.4c0.2-0.2,0.6,0.1,0.4,0.3c0,0.1-0.1,0.1-0.1,0.2
			c0.1,0,0.3,0.1,0.3,0.2c0.1,0.1,0.3,0.2,0.3,0.4c0,0.1,0,0.1,0,0.2c0.1,0,0.3,0.1,0.3,0.2c0.1,0.1,0.2,0.2,0.1,0.3
			c0.2,0,0.3,0.1,0.3,0.3c0,0.5-0.1,0.9-0.4,1.3c0.1,0,0.1-0.1,0.2-0.1c0.2-0.1,0.3,0.2,0.1,0.3c-1.4,0.6-2.9,1.3-4.4,1.4
			C213.3,131.3,214,130.8,214,130.4z"/>
		<path class="st9" d="M213.2,127.7c0.7,0.4,1.4,0.3,2.1-0.1c0.2-0.1,0.6-0.2,0.8-0.3c0.4,0.1,1,0.2,1.4,0.3c0.2,0.1,0.2,0,0.4,0.1
			c0.1,0,0.1,0,0.2,0c0.4,0.3,0.9,0.4,1.2,0.1c0.1,0,0.2,0,0.3,0c0.1,0.1,0.2,0.2,0.3,0.1c0.2-0.1,0.3-0.2,0.3-0.4c0,0,0-0.1,0-0.1
			c0-0.1,0-0.3,0-0.4c0.2,0,0.4,0,0.6-0.1c0.1,0,0.1,0,0.2-0.1c0.2,0,0.3-0.1,0.2-0.3c-0.3-0.7-2.2-1.1-3.4-0.9
			c-0.8,0.1-1.5,0.3-2.2,0.6c-0.8,0.3-1.5,0.9-2.4,0.9C213.1,127.3,213,127.6,213.2,127.7z"/>
		<path class="st9" d="M178.7,114.7c0.8,0.6,1.8,1,2.8,1.3c0.1,0.1,0.3,0.2,0.4,0.2c-0.7-0.1-1.4-0.2-2.1-0.2c-1.1-0.1,0,1.1,0.4,2
			c0.9,1.9,3.3,1.3,5.6,2c0.2,0.1,0.3-0.2,0.2-0.3c0,0,0.1,0,0.1,0c0.2,0.1,0.4-0.2,0.3-0.4c0.2,0,0.4-0.3,0.2-0.4c0,0,0,0,0,0
			c0,0,0,0,0,0c0.2,0,0.3-0.3,0.2-0.4c-0.1-0.1-0.3-0.3-0.4-0.4c0.1-0.1,0.1-0.2,0-0.3c-0.5-0.4-1-0.7-1.6-0.8c0,0,0-0.1,0-0.1
			c0.3,0,0.6-0.1,0.9-0.1c0,0,0,0,0,0c0.1,0.1,0.3,0.1,0.4,0.2c0.1,0,0.2,0,0.3-0.1c0.1,0.1,0.2,0.2,0.3,0.3c0.1,0.1,0.3,0,0.2-0.2
			c-1.7-2.5-5.5-1.4-7.9-2.5C178.7,114.2,178.5,114.5,178.7,114.7z"/>
		<path class="st9" d="M177,113.4c0,0.1,0.1,0.1,0.1,0.2c0.4,0.3,0.7,0.6,1,0.9c0.1,0.1,0.1,0.1,0.2,0.2c0-0.3-0.2-1-0.1-1.6
			c0-0.2,0.3-0.3,0.4-0.1c0.3,0.8,0.4,1.6,0.4,2.5c0,0,0.1,0,0.1,0.1c-0.1-0.3-0.1-0.6-0.1-0.9c0-0.1,0-0.1,0-0.2c0-0.2,0-0.5,0-0.8
			c0-0.2,0.3-0.3,0.4-0.1c0.1,0,0.4,1.1,0.5,1.6c0-0.2,0.1-0.4,0.1-0.6c0,0,0-0.1,0-0.1c0.1-0.2,0.4-0.2,0.4,0.1
			c0,0.6,0.1,1.2,0.1,1.7c0,0,0,0,0,0c0.1,0,0.1,0,0.2,0c0,0,0.1,0,0.1,0.1c0,0,0.1,0,0.1,0c0.1,0,0.1,0.1,0.1,0.2c0,0,0,0,0.1,0
			c0.2,0.1,0.2,0.3,0,0.3c0,0,0,0-0.1,0c0,0.1-0.1,0.2-0.2,0.2c0.1,0,0.1,0.1,0.2,0.1c0.2,0.1,0.1,0.4-0.1,0.3c0,0,0,0,0,0
			c0,0,0,0.1,0.1,0.1c0.1,0,0.1,0.1,0.2,0.1c0.1,0,0.1,0.2,0.1,0.3c0.2,0.2,0.5,0.5,0.7,0.7c0.1,0.2,0,0.4-0.2,0.3c0,0,0,0-0.1,0
			c0.2,0.1-0.8-0.4-1.3-0.8c-0.2-0.2-0.4-0.4-0.6-0.6c-0.2-0.2-1.3-1.6-1.4-1.7c-0.7-0.9-1.2-1.6-1.7-2.4
			C176.6,113.5,176.9,113.2,177,113.4z"/>
		<path class="st9" d="M210,128.3c0.1,0,0.1,0,0.2,0.1c0.4,0.1,0.8,0.2,1.2,0.4c0.2,0,0.4,0.1,0.6,0.1c-0.3-0.1-0.7-0.3-1-0.5
			c-0.2-0.2-0.1-0.4,0.2-0.4c0,0,0,0,0.1,0c0.4,0,0.7,0.2,1.1,0.3c0.2,0.1,0.4,0.1,0.5,0.2c0,0,0.1,0,0.1,0c0.5,0,1,0,1.5,0
			c0.3,0,0.6,0,0.9,0c0.2,0,0.4-0.1,0.6-0.1c0.1,0,0.2,0.1,0.2,0.2c0,0.1,0,0.2-0.1,0.2c-0.2,0-0.3,0-0.5,0c0,0-0.1,0-0.1,0
			c0.1,0.1,0.1,0.3,0,0.4c0.2,0,0.3,0,0.5,0c0.3,0,0.3,0.4,0.1,0.5c-0.3,0-0.5,0.1-0.8,0.1c0,0.1,0,0.1-0.1,0.2
			c0.2,0.1,0.2,0.4,0,0.4c-0.1,0-0.2,0-0.3,0c0,0,0,0,0,0c0,0,0.1,0,0.1,0c0.1,0,0.1,0,0.2,0c0.3,0,0.3,0.4,0.1,0.4c0,0,0,0-0.1,0
			l0,0c0,0,0,0,0,0c0,0-0.1,0-0.1,0c0,0,0,0,0,0c0.4,0,0.7,0,1.1,0.1c0.2,0,0.2,0.3,0,0.3c-0.5,0.1-1,0.1-1.5,0.1
			c-1.4,0.1-2.8-0.5-3.9-1.4c-0.1-0.1-0.1-0.2,0-0.2c-0.2-0.1-0.3-0.2-0.5-0.3c-0.2-0.1-0.1-0.3,0-0.4c-0.1-0.1-0.3-0.1-0.4-0.2
			C209.6,128.5,209.8,128.2,210,128.3z"/>
		<path class="st29" d="M215,157.3c0.7-2.3,0.9-4.8,0.7-7.2c2.3,2.4,2.8,5.9,3.2,9.2c-2.2,2.8-4.2,5.8-5.8,9
			c-0.3,0.6-0.6,1.2-0.6,1.9c0,0.2,0,0.4,0.1,0.6c-0.1,0.1-0.1,0.2-0.2,0.4c-0.7-2.3-0.4-4.8,0.3-7.1S214.4,159.6,215,157.3z"/>
	</g>
</g>
</svg>
