<?xml version="1.0" encoding="utf-8"?>
<!-- Generator: Adobe Illustrator 26.0.1, SVG Export Plug-In . SVG Version: 6.00 Build 0)  -->
<svg version="1.1" id="Layer_1" xmlns="http://www.w3.org/2000/svg" xmlns:xlink="http://www.w3.org/1999/xlink" x="0px" y="0px"
	 viewBox="0 0 283.5 283.5" style="enable-background:new 0 0 283.5 283.5;" xml:space="preserve">
<style type="text/css">
	.st0{fill:#FFFFFF;}
	.st1{fill:#E6E6E6;}
	.st2{fill:#CDCDCD;}
	.st3{fill:url(#SVGID_1_);}
	.st4{fill:url(#SVGID_00000175288586459771737100000009914794415718016143_);}
	.st5{fill:url(#SVGID_00000115492090349018443520000006103034317643727502_);}
	.st6{fill:#181819;}
	.st7{fill:#040405;}
	.st8{fill:#008A97;}
	.st9{fill:#FAC8B8;}
	.st10{fill:#393939;}
	.st11{fill:#C18B52;}
	.st12{opacity:0.75;fill:#E6E6E6;}
	.st13{fill:#263E53;}
	.st14{fill:#516575;}
	.st15{fill:#1C1B20;}
	.st16{fill:#37363B;}
	.st17{fill:#2B2A2F;}
	
		.st18{fill-rule:evenodd;clip-rule:evenodd;fill:#E1E1E1;stroke:#F9F9F9;stroke-width:0.25;stroke-linecap:round;stroke-linejoin:round;}
	.st19{fill:#D5E6F7;}
	.st20{fill:#80357F;}
	.st21{fill:#E52F32;}
	.st22{fill:#435D89;}
	.st23{fill:#C79763;}
	.st24{opacity:0.3;fill:#C18B52;}
	.st25{fill:#D4AE86;}
	.st26{fill:#878787;}
	.st27{fill:#A51627;}
	.st28{fill:#CDA275;}
	.st29{fill:#1D1D1E;}
	.st30{opacity:0.23;}
	.st31{opacity:0.12;}
	.st32{fill:#E7E7E7;}
	.st33{fill:none;}
	.st34{fill:#232828;}
	.st35{fill:#131616;}
	.st36{fill:#343A3A;}
	.st37{fill:#353A4E;}
	.st38{fill:#767D93;}
	.st39{fill:#18191E;}
	.st40{fill:#DECA44;}
	.st41{fill:#F7BF23;}
	.st42{fill:#45464C;}
	.st43{fill:#2C3133;}
	.st44{fill:#1E2123;}
	.st45{fill:#414547;}
	.st46{fill:#131516;}
	.st47{fill:#4F4F50;}
	.st48{fill:#2C3A3F;}
	.st49{fill:#CFCFCF;}
	.st50{fill:#28353A;}
	.st51{fill:#B4B4B4;}
	.st52{fill:#DFC3A5;}
	.st53{fill:#E9D6C2;}
	.st54{opacity:0.4;fill:#393939;}
	.st55{enable-background:new    ;}
	.st56{clip-path:url(#SVGID_00000064332069981621575190000007279651753507153320_);}
	.st57{clip-path:url(#SVGID_00000142888389945363304190000007905715432268121525_);}
	.st58{clip-path:url(#SVGID_00000086682220692527262870000008494621926133147813_);enable-background:new    ;}
	.st59{fill:#EFF2F4;}
	.st60{clip-path:url(#SVGID_00000020393554626854479200000015014880242182022078_);enable-background:new    ;}
	.st61{clip-path:url(#SVGID_00000077296656110618748340000005368699470809870735_);enable-background:new    ;}
	.st62{fill:#B8BBBC;}
	.st63{fill:#808283;}
	.st64{clip-path:url(#SVGID_00000032632501423332367060000010731991782985079973_);enable-background:new    ;}
	.st65{opacity:0.4;fill:#FFFFFF;}
</style>
<g>
	<linearGradient id="SVGID_1_" gradientUnits="userSpaceOnUse" x1="109.5285" y1="278.214" x2="204.5092" y2="167.297">
		<stop  offset="0" style="stop-color:#D7D7D7"/>
		<stop  offset="1" style="stop-color:#E2E2E2;stop-opacity:0"/>
	</linearGradient>
	<path class="st3" d="M253.4,146c-15.9-6.7-36-10.8-57.9-10.8c-51.2,0-92.7,22-92.7,49.1s41.5,49.1,92.7,49.1
		c21.9,0,42.1-4,57.9-10.8V146z M195.4,210.1c-26.8,0-48.6-11.5-48.6-25.7c0-14.2,21.7-25.7,48.6-25.7c26.8,0,48.6,11.5,48.6,25.7
		C244,198.6,222.2,210.1,195.4,210.1z"/>
	
		<linearGradient id="SVGID_00000045589258658883470570000000874674057722474672_" gradientUnits="userSpaceOnUse" x1="27.8756" y1="222.1021" x2="87.7732" y2="222.1021">
		<stop  offset="0" style="stop-color:#D7D7D7"/>
		<stop  offset="1" style="stop-color:#E2E2E2;stop-opacity:0"/>
	</linearGradient>
	<path style="fill:url(#SVGID_00000045589258658883470570000000874674057722474672_);" d="M27.9,222.6c0,0,5.6,0.2,16.6,0.6
		c1,0-1.7,1.6-0.7,1.6c13.4,0.5,33,0.8,39.6,1c1,0,4.4-7.6,4.4-7.6l-53.9,1l-5,1.7L27.9,222.6z"/>
	
		<linearGradient id="SVGID_00000070084885730066871440000003801023294103535016_" gradientUnits="userSpaceOnUse" x1="206.6478" y1="242.172" x2="263.287" y2="242.172">
		<stop  offset="0" style="stop-color:#D7D7D7"/>
		<stop  offset="1" style="stop-color:#E2E2E2;stop-opacity:0"/>
	</linearGradient>
	<path style="fill:url(#SVGID_00000070084885730066871440000003801023294103535016_);" d="M206.6,243.7c0,0,43.7,1.2,56.4,1.7
		c1,0-1.5-6.6-1.5-6.6l-48.1,1.2l-5.8,2L206.6,243.7z"/>
	<g>
		<path class="st1" d="M177,240c-0.5,0-1-0.4-1.1-0.9l-12.4-93.8c-0.1-0.6,0.3-1.1,0.9-1.2c0.6-0.1,1.1,0.3,1.2,0.9l12.4,93.8
			c0.1,0.6-0.3,1.1-0.9,1.2C177.1,240,177.1,240,177,240z"/>
		<path class="st1" d="M191.9,231.4c-0.5,0-1-0.4-1.1-0.9l-12.4-93.8c-0.1-0.6,0.3-1.1,0.9-1.2c0.6-0.1,1.1,0.3,1.2,0.9l12.4,93.8
			c0.1,0.6-0.3,1.1-0.9,1.2C192,231.4,191.9,231.4,191.9,231.4z"/>
		<path class="st1" d="M137.2,216.9c-0.1,0-0.1,0-0.2,0c-0.6-0.1-1-0.6-0.9-1.2l12-79.7c0.1-0.6,0.6-1,1.2-0.9
			c0.6,0.1,1,0.6,0.9,1.2l-12,79.7C138.2,216.6,137.7,216.9,137.2,216.9z"/>
		<path class="st1" d="M152,208.4c-0.1,0-0.1,0-0.2,0c-0.6-0.1-1-0.6-0.9-1.2l12-79.7c0.1-0.6,0.6-1,1.2-0.9c0.6,0.1,1,0.6,0.9,1.2
			l-12,79.7C153,208,152.6,208.4,152,208.4z"/>
		<polygon class="st1" points="182.5,134.8 162.1,146.5 145.6,137 165.9,125.2 		"/>
		<polygon class="st1" points="162.1,146.5 162.1,149.1 145.6,139.5 145.6,137 		"/>
		<polygon class="st1" points="162.1,146.5 162.1,149.1 182.5,137.3 182.5,134.8 		"/>
		<path class="st1" d="M166.7,162c-0.4,0-0.7-0.2-0.9-0.5c-0.3-0.5-0.1-1.2,0.4-1.5l14.9-8.6c0.5-0.3,1.2-0.1,1.5,0.4
			c0.3,0.5,0.1,1.2-0.4,1.5l-14.9,8.6C167.1,162,166.9,162,166.7,162z"/>
		<path class="st1" d="M168.5,175.5c-0.4,0-0.7-0.2-0.9-0.5c-0.3-0.5-0.1-1.2,0.4-1.5l14.9-8.6c0.5-0.3,1.2-0.1,1.5,0.4
			c0.3,0.5,0.1,1.2-0.4,1.5l-14.9,8.6C168.9,175.5,168.7,175.5,168.5,175.5z"/>
		<path class="st1" d="M170.3,189c-0.4,0-0.7-0.2-0.9-0.5c-0.3-0.5-0.1-1.2,0.4-1.5l14.9-8.6c0.5-0.3,1.2-0.1,1.5,0.4
			c0.3,0.5,0.1,1.2-0.4,1.5l-14.9,8.6C170.7,189,170.5,189,170.3,189z"/>
		<path class="st1" d="M172.1,202.5c-0.4,0-0.7-0.2-0.9-0.5c-0.3-0.5-0.1-1.2,0.4-1.5l14.9-8.6c0.5-0.3,1.2-0.1,1.5,0.4
			c0.3,0.5,0.1,1.2-0.4,1.5l-14.9,8.6C172.4,202.4,172.3,202.5,172.1,202.5z"/>
		<path class="st1" d="M173.9,216c-0.4,0-0.7-0.2-0.9-0.5c-0.3-0.5-0.1-1.2,0.4-1.5l14.9-8.6c0.5-0.3,1.2-0.1,1.5,0.4
			s0.1,1.2-0.4,1.5l-14.9,8.6C174.2,215.9,174,216,173.9,216z"/>
		<path class="st1" d="M175.6,229.4c-0.4,0-0.7-0.2-0.9-0.5c-0.3-0.5-0.1-1.2,0.4-1.5l14.9-8.6c0.5-0.3,1.2-0.1,1.5,0.4
			c0.3,0.5,0.1,1.2-0.4,1.5l-14.9,8.6C176,229.4,175.8,229.4,175.6,229.4z"/>
	</g>
	<g>
		<path class="st1" d="M179.7,186.9l-16-23.6c-6.4,6.4-16.6,7.1-28.2,0.7c-19.7-11-36-38.5-36.4-61.5c-0.1-4.8,0.6-9.1,1.8-12.6
			L81.5,71.7L61.1,83.5l18.1,50.6c4.4,33.8,28.5,37.8,56.7,53.5c11.3,6.3,21.8,8.2,30.4,6.4l-0.7,2l8.2-4.7c0.4-0.2,0.8-0.4,1.1-0.7
			l0,0l0,0C176.7,189.6,178.2,188.3,179.7,186.9z"/>
		<path class="st6" d="M175.7,181.1L175.7,181.1l-12.2,13.4c0.9-0.1-5.1,4.4-4.2,4.2l-5.1,3.9l19.7-11.4c0.4-0.2,0.8-0.4,1.1-0.7
			l0,0l0,0c1.7-1,3.3-2.3,4.7-3.7L175.7,181.1z"/>
		<path class="st7" d="M115,175.8c-19.7-11-36-38.5-36.4-61.5c-0.1-4.8,0.6-9.1,1.8-12.6L61.1,83.5c-1.9,5.6-2.8,12.1-2.7,19.5
			c0.6,36.1,26.1,79.2,57.1,96.4c18,10,33.9,9,43.9-0.7l-16-23.6C136.9,181.5,126.7,182.2,115,175.8z"/>
		<polygon class="st1" points="143.2,175.1 163.6,163.3 179.7,186.9 159.3,198.7 		"/>
		<polygon class="st1" points="80.4,101.7 100.8,90 81.5,71.7 61.1,83.5 		"/>
	</g>
	<g>
		<path class="st1" d="M133.7,57.1c-15.2-8.4-28.8-9-38.7-3.2l0,0l-1.6,0.9l-6.1,5.8c-2.4,3.1-4.4,6.8-5.8,11l28.7-7.3
			c0,0,8.3,7.6,23.9,16.3c6.5,3.6,12.6,9,17.8,15.4l9-15.8C152.8,70.6,143.5,62.5,133.7,57.1z"/>
		<path class="st6" d="M81.5,71.7l14.1,13.2l3,6.4l2.2-1.3c2.8-8.4,9.2-11.3,9.2-11.3S88.6,50.3,81.5,71.7z"/>
		<path class="st7" d="M79.1,73.1l19.4,18.2c4.6-13.5,17.6-17.9,33.2-9.2c6.5,3.6,12.6,9,17.8,15.4l9-15.8
			c-8.1-9.6-17.4-17.7-27.2-23.2C106.8,44.8,86.3,51.6,79.1,73.1z"/>
		<polygon class="st8" points="160.9,80.3 158.6,81.6 149.6,97.4 151.9,96.1 		"/>
	</g>
	<g>
		<path class="st7" d="M168.2,132.9c0.1,1.3-0.2,1.8-0.4,1.9c-0.2,0.2-0.3,0.2-0.3,0.4c0,0.2-0.3,1.1-0.6,1.6
			c-0.9,1.9-2.5,1.9-2.2,0.4c0.3-1.5,0.6-1.6,0.6-2.6c0.1-1.1,0.2-2.1,1.2-2.6C167.4,131.6,168.1,132.1,168.2,132.9z"/>
		<path class="st1" d="M150.7,62c0,1.8-3.2,4.1-5.3,5.7c-1.7,1.3-12.9,5.4-12.9,5.4l-0.4-3l11.7-6.3c0,0,6.7-8.8,8.4-10.4
			C154.9,50.8,150.7,60.2,150.7,62z"/>
		<path class="st7" d="M157.8,131.9c-1.4,1.2-1.7,1-1.8,1.8s2,0.3,3.1-0.1c0,0,0.8-0.3,1.3-0.9c0.4-0.6,0.9-0.3,1.7-0.6
			s0.9-1.1,0.6-2.3c-0.4-1.2-2.7,0-3.2,0.4S157.8,131.9,157.8,131.9z"/>
		<path class="st9" d="M159.9,130c-0.2,0.4,0,0.5,0.3,0.6c0.3,0.1,1.5-0.3,1.7-0.8c0.2-0.5,0.6-15.8,0-21.6
			c-0.6-5.8,0.2-23.3,0.4-27.6c0.2-4.3-7.3-5.3-7.5,2.2c-0.2,7.5,1.5,24.4,2.5,28c1,3.6,2.5,15.6,2.7,17
			C160.2,128.5,160.3,129.4,159.9,130z"/>
		<path class="st9" d="M166,132.6c0,0.5-0.1,1,0.6,1.1c0.6,0.1,1.4-0.7,1.1-1.5c-0.4-1.3,1.1-15.5,0.5-21.3
			c-0.6-5.8-1.8-23.3-1.5-27.6c0.2-4.3-7.4-5.3-7.6,2.2c-0.2,7.5,3.5,25,4.5,28.6c1,3.6,2.1,14.6,2.3,16.1
			C166,130.8,166,132,166,132.6z"/>
		<path class="st10" d="M150.7,77c-0.7,20.1,1.6,23.2,2.7,28.8c0.4,2.3,7.4,5.9,11.2,5.5c3.7-0.4,4.3-1.7,4.2-3.8
			c-0.3-5.1-0.4-7.2-1.1-29.2L150.7,77z"/>
		<path class="st11" d="M165.3,81.6c-1.8,3.2-3,7.6-9.4,8.2c-6.4,0.5-6.7-2.7-6.8-11.9c-0.1-9.1,0.5-23.9,4.5-26.1
			c3.6-2,11.7,1.6,14.5,7.9c2.5,5.5,1,19.6,0.8,24.3S165.3,81.6,165.3,81.6z"/>
		<g>
			<path class="st1" d="M141.5,62l-8.7,5l-2.2,11.6c1.2,0.7,2.3,1.4,3.6,2c6.5,3.6,12.6,9,17.8,15.4l9-15.8
				C155,73.2,148.4,67,141.5,62z"/>
			<polygon class="st6" points="160.9,80.3 152.2,85.3 143.2,101.1 151.9,96.1 			"/>
			<path class="st7" d="M132.7,67L132.7,67l-4,20.8c5.2,3.5,10.1,8,14.5,13.3l9-15.8C146.3,78.2,139.7,72,132.7,67z"/>
		</g>
		<path class="st9" d="M164.6,56.2c-0.1-0.2-0.4-0.5-0.7-0.7l0,0c0,0,0,0,0,0c-0.1,0-0.1-0.1-0.2-0.1c-0.5-0.5-2.1-2.1-2.9-5.6
			c0,0-2.9-0.4-3.3,0.9c-0.2,0.7-0.9,1.2-1.6,1.5c-0.5,0.1-0.9,0.2-1.2,0.5c0,0,0,0,0,0l0,0c-0.9,0.6-1.3,1.6-1.1,3.2
			c0.4,3.3,7,6.5,9.6,5.2C165.7,59.5,165.4,57.3,164.6,56.2z"/>
		<path class="st1" d="M163.2,60.9c2.5-1.3,2.3-3.6,1.4-4.7c-0.1-0.2-0.4-0.5-0.7-0.7l0,0c0,0,0,0,0,0c-0.1,0-0.1-0.1-0.2-0.1
			c-0.4-0.4-1.4-1.4-2.3-3.5h0c0,0-0.8,1.9-2.1,2.2c-1.1,0.2-3.3-0.1-3.5-1.8c-0.4,0.1-0.8,0.2-1.2,0.4c0,0,0,0,0,0l0,0
			c-0.9,0.6-1.3,1.6-1.1,3.2C154.1,59,160.7,62.2,163.2,60.9z"/>
		<path class="st9" d="M153.7,46.6c-0.6,5.2,1.1,6.4,2.7,7c1.6,0.6,5.2-1.5,4.5-7C160.1,41.1,154.2,42.5,153.7,46.6z"/>
		<path class="st7" d="M153.6,48c-0.4,0-1-0.3-0.8-0.5c0.2-0.1,0-0.1,0.1-0.5c0.1-0.4-1.2-0.3-1-0.4c0.3-0.1-0.1-0.1-0.2-0.8
			c-0.1-0.6-0.3-1.1,0.1-1s0.5-0.7,0.6-0.9c0.1-0.2-0.7-0.3-0.6-0.8c0.1-0.5,0.5-0.7,0.7-1.1c0.2-0.4,0.4-0.9,0.4-0.9s0.5-0.2,0.8-1
			c0.3-0.8,1-1.8,1.4-1.8c0.4,0,0.9,0.8,1.8,0.7c0.8-0.1,0.8-1.4,1.3-1.1c0.5,0.4,0.3,0.8,1.1,0.7c0.8-0.1,1.3-1,1.5-0.7
			c0.3,0.3,0.4,0.9,0.8,0.7c0.4-0.2,0.5-0.3,0.6-0.1c0.1,0.2-0.2,0.4,0,0.6s0,0.2,0.3,0.5c0.3,0.3,0-0.3,0.5-0.1
			c0.6,0.2,1.7,0.7,1.8,0.9c0.2,0.2,0.7,0.3,0.6,0.9c-0.2,0.6,0.1,2.2,0.7,2.3c2.2,0.5,0.3,1.5,0,1.7c-0.3,0.2,0,2,0,2.3
			c-0.1,0.3,0.2,1-0.2,0.8c-0.4-0.1-0.5,0.5-0.5,0.5s-0.1,0.6-0.1,0.7c0,0.1,0.1-0.1-0.5,0.1c-0.6,0.1-1.1-0.1-1.1,0.4
			c0.1,0.5,0.7,0.7,0.4,1c-0.3,0.4-1,0.4-1.3,0.2c0.7,0.4-0.3,0.7-1.5-0.1c-0.3-0.2-0.1-0.2-0.3-0.2c-0.2,0-0.7-0.8-0.7-0.8l0-1.9
			l-2.7-3.6h-2.1l-1.5,0.9c0,0-0.4,0.7-0.4,1C153.6,48.3,153.6,48,153.6,48z"/>
		<path class="st7" d="M160.2,46c-1.9-3.1-4.1-4-6.1-0.7l-0.4,1.4c1.4-2.1,3.5-1.3,5.2,1.3c0.2,0.3,0.5,0.4,0.8,0.3
			c0.3-0.1,0.7,0,0.8,0.5c0.1,0.3,0,0.6-0.2,0.9c-0.1,0.3-0.1,0.7,0,1l0.1,0.1C160.5,50.8,161.6,48.2,160.2,46z"/>
		<path class="st9" d="M152.2,85c-0.8,0.7-1.4,1.2-2.8,1.5c-1.4,0.3-2,1.4-1.4,2.4c0.6,1,3.7,0.3,4.3-0.1c0.7-0.4,2-1.9,2-1.9
			l0.6-2.4l-2.3,0L152.2,85z"/>
		<path class="st1" d="M167.7,62c1,2.3,0.6,3.6,0.6,5.4c0,1.8-1.9,9.8-3.2,11.6c-1.3,1.8-10.8,7.8-10.8,7.8s0.6-0.9-0.6-1.8
			c-0.9-0.8-1.5-0.1-1.5-0.1l9.8-9.4c0,0,1.9-11.2,2.5-13.5C165.3,59.8,167.4,61.4,167.7,62z"/>
		<path class="st9" d="M132.1,70.6c-2.8,1.9-3.2,4.3-1.3,6.7c1.9,2.4,2.6,0.2,2.6-1.1c0-1.4-1.8-3.1-1.8-3.1L132.1,70.6z"/>
		<path class="st9" d="M152.3,84.9c-0.6,0.2-1.5-0.3-2,0c-0.6,0.3,0.3,0.8,1.1,0.9C152.1,85.8,152.3,84.9,152.3,84.9z"/>
		<path class="st9" d="M131.9,71.4c0.6,1.2,0.4,1.7,0,1.4c-0.4-0.3-0.6-0.9-0.6-0.9C131.3,71.9,131.9,71.4,131.9,71.4z"/>
	</g>
	<g>
		<polygon class="st0" points="170.9,180.2 172.6,181.3 172.6,179.2 171.7,178.3 168.2,176 169.9,178.8 		"/>
		<path class="st11" d="M133.4,167.4c11.7-3.6,18.4-5.8,21.4-5.9c3-0.1,16.9,16.7,16.9,16.7s-1.2,0.9-0.8,1.9c0,0-10.1-8.3-17-11.3
			c0,0-8.7,4.9-11.1,4.9S126.5,169.5,133.4,167.4z"/>
		<path class="st11" d="M93.3,168.5c1.8-4.3-1.5-6.5-1.2-8.9c0.3-2.4,1.2-4.3,1.2-4.3l3.2,4.3c0,0,0.1,0.6-0.1,2.3
			c-0.1,1.1-0.4,3.7-0.9,6.3S92.5,170.3,93.3,168.5z"/>
		<polygon class="st0" points="161.7,191 162.5,192 163.7,191.5 164.3,191 163.7,189.6 161.8,189.7 		"/>
		<path class="st9" d="M116.9,154.6l2.8-1.4l-9.2,0.7l-0.3-2.3c0,0,11.7-3.2,14.5-2.5c1.3,0.3,0.8,2.1,0,3.9c-0.6,1.2-3.2,5-3.2,5
			L116.9,154.6z"/>
		<path class="st11" d="M127,176c6.5,4,17.3-1.5,20.4-3.4l14.2,18.3c0,0,0.6-1.2,2-1.4c0,0-10.7-18.8-12.4-21.5
			c-1.7-2.7-2.8-2.8-6.1-2.3c-3.2,0.6-9.8,1.6-9.8,1.6s-4.4,0.1-7,4C125.9,175.3,127,176,127,176z"/>
		<path class="st9" d="M103.8,161.1c-2.8,1.2-2.8,1.2-2.8,1.2s0.9-1.7,3.6-3.9s3.2-2.9,3.2-2.9l-1.9-1.5c0,0-7.4,5.5-9.3,8.2
			c-1.9,2.6-2.4,4.5,1.1,4.3c3.5-0.2,7.3,0,7.3,0l4.3-2.3l-2-3.5h-2.7L103.8,161.1z"/>
		<g>
			<path class="st0" d="M136.3,165.1c-0.5-0.5-4.2,0-8.3-2.7c-2.9-1.9-4.7-3.4-6.4-4.3c0,0-0.1,0-0.1-0.1c-0.1-0.7-0.5-1.7-1.4-2.5
				c-2-1.7-3.3-0.7-3.3-0.7s-0.7,0.3-4.3,1.7c-0.1,0-0.2,0-0.3,0.1c-1.6,0.4-2.9,1.1-3.6,1.8l0,0c-3.2,2.2-4.6,2.8-4.8,2.9
				c0.2-0.1,1.1-0.2,2,1.4c1,1.9,0.2,3.1-0.6,3.9c0,0,3.7,0,5.5,1.7c5.2,4.7,12.5,8.3,14.6,9.1c0,0,1.6,0.7,3.4-3.4
				c1.2-2.8,3.5-6,8.2-7.5C137,166.3,136.8,165.6,136.3,165.1z"/>
			<path class="st0" d="M103.8,161.1C103.8,161.1,103.8,161.1,103.8,161.1C103.8,161.1,103.8,161.1,103.8,161.1z"/>
		</g>
		<path class="st9" d="M107.9,158.7c1.7-0.7,3.5-0.2,5.1-0.8c1.6-0.6,0.6-1.9,0.6-1.9s-2,0.7-2.2-0.4c-0.2-1.1-3,0.9-3,0.9
			s0.2,1,0,1.4C108.2,158.4,107.9,158.7,107.9,158.7z"/>
		<path class="st9" d="M108.4,156.5c2.3-0.6,3.6-1.1,3.4-1.7c-0.1-0.6-1-5.2-3-6c-2-0.8-3.6,3.7-2.8,5.4
			C106.8,155.9,108.4,156.5,108.4,156.5z"/>
		<path class="st11" d="M108.4,157c0.1,3.9-3.2-1.9-4.7-1.6l-3.5,2.3c0,0-2.8,0.7-3.8,1.8l-3.2-4.3c0.5-2.2,2.5,1,3.9-3.5
			c1.3-4.2,3.9-1,5.1-3c1.7-2.6,2.5,1,4.1,0.1c1.6-0.9,4-1.6,4.8,1.5c0.1,0.4,0,2,0,2s-1.1-2.7-2-2.7c-1,0-2.1,2.7-1.9,4
			c0,0-0.9-0.1-0.6,0.7c0.3,0.8,1,0.6,1,0.6S108.4,156.3,108.4,157z"/>
		<path class="st10" d="M173,178.4c0.4-0.1,0.5,0.6,0.5,0.6s0.8-0.4,3.1-1.6c1.3-0.7,0.5,1.9-2.1,3.4c-1.1,0.7-1.2,1.6-1.8,1.4
			c-0.6-0.2-1.2-1.3-1.2-1.3s1-0.7,0.7-1.3C172,179.1,172.6,178.5,173,178.4z"/>
		<path class="st10" d="M162.2,191.9c0.4,0.8,0.9,1.3,1.3,1.4c0.4,0.1,2.7-0.6,4-1.2s1.4-1.2,0-1.2c-1.4,0-3.1,0-3.1,0
			s-0.2-0.2-0.2-0.5c0-0.3-1.4,0-1.1,0.6l0.2,0.3c0,0-0.4,0.4-0.7,0.3C162.4,191.8,162.2,191.8,162.2,191.9z"/>
	</g>
	<g>
		<path class="st7" d="M208.5,241.3c-1.7,1.5-2.1,1.3-2.3,2.3c-0.2,1,2.6,0.4,3.9-0.1c0,0,1.1-0.4,1.6-1.1c0.5-0.7,1.1-0.4,2.1-0.7
			s1.2-1.4,0.7-2.9c-0.5-1.6-3.5,0-4.1,0.5C209.7,239.7,208.5,241.3,208.5,241.3z"/>
		<path class="st9" d="M209.2,159.5c-0.9-1.9-1.7-0.6-2.2-2.9c-0.5-2.3,0.5-5.3,3.8-7.5c3.3-2.2,5.4,0.4,5.8,4.3
			c0.4,3.9-1.9,6.7-1.9,6.7l-3.1,1.1L209.2,159.5z"/>
		<path class="st7" d="M190.2,219.5c-0.5,1.7-0.8,2.2-1.1,2.6c-0.3,0.4-2.6-0.2-2.8-0.6c-0.2-0.4-0.7,0-0.9,0.2
			c-0.2,0.2-4.8,0.5-4.8,0c0-2,1.4-1.3,4.3-2.3c5-1.8,3.3-2.6,3.3-2.6L190.2,219.5z"/>
		<path class="st11" d="M186.9,217.7c3.2-20.5,2-22.6,4.9-24.4c2.9-1.8,13.4-7.2,13.4-7.2l3.1,9.8c0,0-11.8,5.6-12.3,6.7
			c-1.3,3.6-1.4,4.9-2.7,8.5c-1.6,4.4-2.5,6.7-2.9,8C190,220.4,186.7,219.4,186.9,217.7z"/>
		<path class="st9" d="M180.7,169.7c-1.6,0.1-2.3,0.9-3,0.9c-0.7,0.1-0.8,0-0.8,0s1.7-1,1.7-1.8c0.1-0.8-0.6-0.9-0.8-0.7
			s-2,1.2-2,1.2s-1.2-2.1,0-3.4c1.2-1.3,3.2-1.3,6.1,0.4C184.8,168,180.7,169.7,180.7,169.7z"/>
		<path class="st11" d="M205,197.1c1.2,8.7,2.6,12.9,3.2,19.6c0.7,6.7,1.5,17.1,2.3,21c0.5,2.6,4.1,2.3,3.8,0
			c-0.2-2.2,0.5-17.4,1-21.4c0.5-4,1.3-21.3,1.3-21.3l-11.3-8.9L205,197.1z"/>
		<path class="st7" d="M226.4,183.4c0,0-3.3-14-7.3-17c0,0-2.6-2.4-2.6-2.4c-1.6-2.6-1.8-3.9-1.8-3.9c-2.7,0.7-5.5-0.6-5.5-0.6
			s0.5,1.6,0,2.3c0,0,0,0,0,0c-3.9,0.8-10.1,5-12.8,5.6c-3.1,0.7-8.5-0.1-14.5-1.2c-0.8-0.1-1.8,3.1-1,3.5c6.5,3.2,9.1,5,14.6,4
			c5.5-1,6.9-0.6,8.2,1.3c1.3,1.8-1,8.7-3.3,12.9c-2.1,3.6,4.1,4,6.5,4.9c2.4,0.9,3.4,9,8.7,9.8c2.4,0.4,5.1-8.2,6.3-14.7l2.7,4.1
			L226.4,183.4z"/>
		<g>
			<path class="st1" d="M199.8,183.3l11.7,26.1l4.3-2.5c6.1-5.9,10-15,10.9-26.8l-20.2-13.8C205.9,173.8,203.5,179.6,199.8,183.3z"
				/>
			<path class="st7" d="M195.4,185.8l16,23.6c6.1-5.9,10-15,10.9-26.8l-20.2-13.8C201.6,176.3,199.2,182.1,195.4,185.8z"/>
			<polygon class="st1" points="206.5,166.4 202.2,168.9 222.4,182.7 226.7,180.2 			"/>
		</g>
		<path class="st9" d="M217.4,192.9c-2.2,0.8-4.4-0.8-4.7-0.1c-0.3,0.7,1.8,1.2,1.7,1.5c-0.2,0.3-1.4,0.3-3.1,0.4
			c-1.6,0.1-0.8,2.8,1.9,3c2.7,0.2,3.6-1,5.3-1.3C220.2,196.2,217.4,192.9,217.4,192.9z"/>
		<path class="st7" d="M226.4,183.4c3.6,9,3.2,11.8-3,12.9c-3.8,0.7-5.1,0.8-5.1,0.8c-0.1-2.3-0.8-4.2-0.8-4.2l7.5-3.2L226.4,183.4z
			"/>
		<path class="st11" d="M207.4,152.9c1.3,0.3,1.4,1.4,1.8,2.6c0.5,1.2,1.6,0.8,2.5-0.3c0.9-1.1,0.5-1.6,1.1-2.3
			c0.6-0.7,1.1-0.9,0.7-1.6c-0.4-0.7-1.4-0.1-2-0.7c-0.6-0.6-1.6-0.9-1.9-0.7l-0.9,0.9c0,0-0.5-1.1,1.1-2.4c1.6-1.3,4.1-1.5,5.8-0.2
			c0,0,1.9,1.4,3.1,4.4s-2.5,5.9-3.4,6.3c-0.7,0.3-1.5-0.8-1.8-2c-0.3-1.3-0.1-1.1,0.6-1.5c0.7-0.4,1.1-1.7,0.3-2
			c-0.8-0.3-1.1-0.2-1.5,0.5c-0.4,0.7-1.1,3.9-1.8,4.4c-0.6,0.5-1.9-0.9-2.9-1c-0.4,0-0.6,0-0.7,0c-0.2,0-0.2,0.2-0.2,0.3l0.1,0.2
			C205.4,157.6,206,152.5,207.4,152.9z"/>
	</g>
	<g>
		<polygon class="st12" points="84.3,171.7 31.7,141.3 31.7,100.3 84.3,130.7 		"/>
		<g>
			<g>
				<path class="st7" d="M64.7,148.1c-4-2.2-7.2-7.7-7.3-12.4c0-1,0.1-1.8,0.4-2.5l-3.9-3.7c-0.4,1.1-0.6,2.4-0.5,3.9
					c0.1,7.3,5.3,15.9,11.5,19.4c3.6,2,6.8,1.8,8.8-0.1l-3.2-4.8C69.1,149.3,67,149.4,64.7,148.1z"/>
				<path class="st11" d="M53.8,129.5l3.9,3.7c0.9-2.7,3.6-3.6,6.7-1.8c1.3,0.7,2.5,1.8,3.6,3.1l1.8-3.2c-1.6-1.9-3.5-3.6-5.5-4.7
					C59.4,123.9,55.3,125.2,53.8,129.5z"/>
				<path class="st10" d="M70.4,148l3.2,4.8c1.2-1.2,2-3,2.2-5.4l-4.1-2.8C71.6,146.1,71.1,147.2,70.4,148z"/>
			</g>
			<path class="st7" d="M69.8,131.3l-1.8,3.2c0.7,0.9,1.4,1.9,2,3l3.1-1.4C72.1,134.3,71.1,132.7,69.8,131.3z"/>
			<path class="st11" d="M71.7,144.6l4.1,2.8c0-0.4,0-0.9,0-1.3c-0.1-3.2-1.1-6.7-2.8-9.9l-3.1,1.4c1.1,2,1.7,4.3,1.8,6.3
				C71.8,144,71.8,144.3,71.7,144.6z"/>
		</g>
		<polygon class="st11" points="46.2,121.5 42.7,119.5 42.7,115.6 46.2,117.5 		"/>
		<polygon class="st11" points="46.2,126.9 42.7,124.9 42.7,121 46.2,123 		"/>
		<polygon class="st10" points="46.2,132.4 42.7,130.4 42.7,126.4 46.2,128.4 		"/>
		<polygon class="st7" points="46.2,137.8 42.7,135.8 42.7,131.9 46.2,133.8 		"/>
		<polygon class="st7" points="46.2,143.2 42.7,141.3 42.7,137.3 46.2,139.3 		"/>
	</g>
	<g>
		<path class="st7" d="M41.8,222.2c0,1-0.2,1.5,0.1,2c0.3,0.5,1.5,0.8,2.2,0.5c0.8-0.4,1.2-0.6,1.5-1.1c0.2-0.4,0.5-0.4,1.1-0.5
			c0.6-0.2,3.6-1.9,3.4-2.6c-0.2-0.6-1.4-0.8-3.2-0.1c-1.9,0.7-4.6,1.4-4.6,1.4L41.8,222.2z"/>
		<path class="st7" d="M27.3,220c0,1.7,0,2,0.5,2.6c0.5,0.5,2.3-0.2,2.5-0.7c0.1-0.4,0.4,0,1-0.4c0.6-0.4,3.2-1.7,3.4-2.5
			c0.2-0.8-1.3-0.9-2.5-0.5c-1.1,0.4-2.7,0.4-2.7,0.4L27.3,220z"/>
		<path class="st6" d="M21.4,169.9c1.5,14.1,3.1,20.7,3.2,25.6c0.1,4.9,1.5,19.8,2.1,23.4c0.5,3.6,4.1,1.6,4.1,0
			c0-1.6,1.7-20.8,1.8-25.2c0.1-4.4,0-24.9,0-24.9L21.4,169.9z"/>
		<path class="st10" d="M27,179.9c7.8,15.5,9.1,14.6,11.2,21.4s2.5,17,2.9,19.9c0.3,2.9,3.8,2.4,4,0c0.2-2.4,0.8-21.6,0-26.1
			c-0.8-4.5-9.9-26.3-9.9-26.3l-7,4L27,179.9z"/>
		<path class="st9" d="M48.5,143.2c1.1-0.8,0.6-1.5,2.6-2.6c1.2-0.7,2.4,0.5,3.3,0.3c0.9-0.2,1.7-1.5,2.2-1c0.3,0.3,0,0.6-2,2.1
			c0,0-0.7,1.2-1.5,1.8c-0.7,0.7-1.4-0.2-1.8-0.1c-0.4,0.1-2,1.4-2,1.4L48.5,143.2z"/>
		<path class="st9" d="M28.4,142.1c0.7-1.1,1-2.8,0.6-3.7c-0.4-0.9-1.4-5.4,2.1-6.7c3.5-1.3,6.3,1.7,5.7,5.2c-0.6,3.5-1,5.4-1.9,5.6
			c-0.9,0.1-1.3-0.1-1.5,0.7s-4.2,0-4.2,0l-0.9-0.3V142.1z"/>
		<path class="st11" d="M48.2,142.5c-11.4,7.1-11.6,9-15.9,6.7c-4.2-2.3-7.1-6.1-7.1-6.1l-2.8,7.4c0,0,2.5,3.9,9,5.6
			c6.5,1.8,13-6.4,18-9.8C51.8,144.6,49,141.9,48.2,142.5z"/>
		<path class="st11" d="M27.5,142.3c7.7,4.4,8.3,4,10.5,10.5c1.6,4.9-1.8,17.7,1.3,24.3c1.1,2.3-0.7,3.6-2.8,3.2
			c-2.7-0.6-3.4-6.3-3.4-6.3s1.9,14-2.6,13.3c-4.5-0.7-7.9-5.3-9.3-9.5c-0.7-2.2-1.2-20.1-1-21.4C21.6,148.3,25,140.9,27.5,142.3z"
			/>
		<path class="st9" d="M38,165.4c0,0-0.1,2-0.3,2.6c0,0-0.4,0.6-1.3,1.4c-0.9,0.8-2.2,0.5-2.1,1.4c0.1,0.9,1.1,0.1,3,0.4
			c1.7,0.4,2-0.1,2-0.1s0.1-1.8,0.1-2.7C39.5,166,38,165.4,38,165.4z"/>
		<path class="st11" d="M35.3,159.4c1.6,4.5,5.7,8,5.7,8s-2.5-0.1-3,1.7c-0.4,1.4-0.2,2,1.7,2.3c3,0.5,6.2-0.6,7-2.2
			c1.6-3.5-8.9-18.8-10.3-20.5C34.4,146.4,33.8,155.1,35.3,159.4z"/>
		<path class="st11" d="M28.4,142.1c0,0-1.1,0.9-1.4,1.5c-0.1,0.3,3.9,1.8,6.5,2.1v-2.6C33.5,143.1,28.2,142.9,28.4,142.1z"/>
		<path class="st7" d="M35.4,129.8c3.7,0.3,3.2,4.1,2.3,5.7c-0.9,1.6-1,1.1-2.3,1.9c0,0-0.3-0.1-0.6,2.1c0,0-0.5,0.1-0.7,0.2
			c-0.2,0.1,0.2-0.7-0.1-0.9c-0.3-0.3-1.4,0.4-1,1.4c0.4,1,0.4,0.7,0.4,0.7s-0.9,1-1.4,0.8c-0.5-0.2-2.9-0.3-3.1-1.2
			c-0.1-0.9-1.1-2.1-1-4.5c0.2-2.4,1.8-4.6,4.1-5C34.5,130.5,34.6,129.7,35.4,129.8z"/>
	</g>
	<g id="Group_14" transform="translate(-587.826 -471.879)">
		<path id="Path_40" class="st11" d="M684.1,591.3c-0.7,0.7-0.6,2.1-0.1,2.7c0.5,0.5,1.5,0.4,2,0.8c1.5,1,3.6,1,4.3,0.5
			c0.7-0.5,0.9-1-1.3-2.3c-1.4-0.9-2.4-1.5-2.4-1.5L684.1,591.3z"/>
		<path id="Path_41" class="st0" d="M684.1,590.1c0,0.6-0.1,1.2-0.2,1.7c0,0.2,0,0.4,0.2,0.6c0.5,0.4,1.5,1,2.6,0.5
			c0,0,0.7-0.3,0.4-1.1c-0.2-0.6-0.4-1.3-0.5-2L684.1,590.1z"/>
		<path id="Path_42" class="st11" d="M672.5,596.1c-0.7,0.7-0.6,2.1-0.1,2.7s1.2,0.1,1.5,0.7c1.3,2.2,3.6,1.9,4.4,1.9
			c1.2-0.1,1.3-1.1-0.7-3c-0.8-0.7-1.6-1.5-2.3-2.3L672.5,596.1z"/>
		<path id="Path_43" class="st11" d="M664.6,542.4c-2.3,5.6-2.8,8.4,1.9,13.8c4.7,5.4,11.4,10.7,12.3,12.3c0.9,1.6,1.9,5.1,4.8,21.5
			c0.2,1,3.3,1.2,3.3-0.6c0-3.2-0.6-21.7-1.5-26.3c-0.9-4.6-10.3-13.6-10.3-13.6L664.6,542.4z"/>
		<path id="Path_44" class="st0" d="M672.5,594.9c0,0.6-0.1,1.2-0.2,1.7c0,0.2,0,0.4,0.2,0.6c0.5,0.4,1.5,1,2.6,0.5
			c0,0,0.7-0.3,0.4-1.1c-0.2-0.6-0.4-1.3-0.5-2L672.5,594.9z"/>
		<path id="Path_45" class="st9" d="M676.4,539c2.8,2.2,4,3,4,3l2.8-1.5l-4-5.7l-1.3-1.1l-1.8,2.5L676.4,539z"/>
		<path id="Path_46" class="st11" d="M657.8,546.3c-2.3,5.6-2.8,8.4,1.9,13.8c4.7,5.4,12.5,9.3,13.3,10.9s-0.6,16-1,23.6
			c-0.1,1,3.3,1.9,3.5,0c0.3-2.3,4-23,3.1-27.6c-0.9-4.6-10.3-13.6-10.3-13.6L657.8,546.3z"/>
		<path id="Path_47" class="st0" d="M675.4,529.7l-0.1,9.9c0,0,0.4-1,1.1-0.6c0,0-0.3-3.8,2.8-4.2
			C679.2,534.8,676.4,530.3,675.4,529.7z"/>
		<path id="Path_48" class="st0" d="M656.1,550c0.9,4.9,6.9,7.6,14.6,3.3c7.7-4.3,4-5.9,3.9-10c-0.1-4.1-1-5.5,0.8-11.6
			s-8.8-2.8-13.2,0.9C657.7,536.5,655.3,545.5,656.1,550z"/>
		<path id="Path_49" class="st7" d="M662.1,532.8c-4.4,3.7-7.3,14.4-6.5,18.9c0.7,3.9,5.5,8.3,10.9,7c-0.1-0.7-0.6-5.3-0.6-6.9
			c-0.1-6.6,3.4-10.4,2.4-18.5c0,0-3.9-1.8-0.5-3.4c3.5-1.6,5-1.6,5.5-0.3c0.4,1.3-1.4,11-1.1,18.1c0.1,2.6,1.1,6.2,1.2,7.5
			c4.7-3.3,1.9-8.2,1.8-11.8c-0.1-4.1,0.5-5.3,0.6-11.6C675.9,525.4,666.5,529.1,662.1,532.8z"/>
		<path id="Path_50" class="st9" d="M670.1,525.9c-1.6,3.2-2.6,4-2.9,4.7s1.2,1.3,2.5,1.4l0.8,2.2l1.4-3.3c0,0,0.8-0.3,0.6-1
			c-0.2-0.7,0.2-1.3,0.5-1.8C673.2,527.6,670.1,525.9,670.1,525.9z"/>
		<path id="Path_51" class="st9" d="M670.1,525.3c0.1,2.3,2,3.3,3.5,3.7c1.6,0.4,5-4.5,4.5-6.7s-3.9-4.3-5.8-2.7
			C670.4,521.1,670.1,525.3,670.1,525.3z"/>
		<path id="Path_52" class="st0" d="M663.6,533.3c-2.7,0.7-4.6,4.8-5.5,8.7c-0.8,3.9,3,2.9,4.4,1.5
			C663.9,542.1,667.3,532.3,663.6,533.3z"/>
		<path id="Path_53" class="st9" d="M675.7,542.8c-1-0.2-1.1,0.3-1.9,1.5l0,0c-1.9,0.8-6.5,2.5-8.5,3.3c0,0-1.4-10.8-1.9-12.5
			l-4,6.9c1.4,6.1,3,8.6,4.2,9.8c1,1,8.7-3.7,11.7-5.6l0,0c0,0,1,0.2,2.6-1.1C679.4,543.8,676.8,543,675.7,542.8z"/>
		<path id="Path_54" class="st7" d="M669.7,525.3c0.3,1.6-1.3,0.7-1.7,1.6s2,1.2,3,0c0.5-0.6,1-0.4,0.4-1.3
			c-0.6-0.9,0.7-1.4,1.3-0.7c0.5,0.6,1.2,0,1.5-0.5c0.3-0.5,2,0.6,3.3,0.9s3.1-0.2,2.8-1.8c-0.3-1.6-1-0.7-1.3-1.3
			c-0.3-0.6,1.1-0.6,0.3-1.4c-0.8-0.8-1.7,0.2-2-0.5s-1.4-0.8-1.9-1.5c-0.5-0.7-1.4,0.3-1.7,0c-0.3-0.3-1.8-0.2-2.5,1.8
			c-0.8,2-0.7,1.2-1.2,2.1C669.3,523.5,669.7,525.3,669.7,525.3z"/>
		<path id="Path_55" class="st11" d="M676.1,544.3l7.7-6.3l-4.4,8.1l-7.6,6.7L676.1,544.3z"/>
		<path id="Path_56" class="st9" d="M682.7,539.9c2,2.7,1.1,3.9,0.5,4.7c-0.5,0.8-6.3,4.3-7.1,5.7c-0.8,1.4-2.8,1.1-3.4,0.7
			s-1.1-1.6-0.6-2.6c0.5-1.2,2.4,0,2.4,0l6.7-5.6L682.7,539.9z"/>
		<path id="Path_57" class="st0" d="M664.4,540.9c-1.2-1-4.5,0.6-4.8,2.4l-0.8-1l2.2-6.2l2.1-1.9l1.1,0.8L664.4,540.9z"/>
	</g>
</g>
</svg>
