<?xml version="1.0" encoding="utf-8"?>
<!-- Generator: Adobe Illustrator 26.0.1, SVG Export Plug-In . SVG Version: 6.00 Build 0)  -->
<svg version="1.1" id="Layer_1" xmlns="http://www.w3.org/2000/svg" xmlns:xlink="http://www.w3.org/1999/xlink" x="0px" y="0px"
	 viewBox="0 0 283.5 283.5" style="enable-background:new 0 0 283.5 283.5;" xml:space="preserve">
<style type="text/css">
	.st0{fill:#FFFFFF;}
	.st1{fill:#E6E6E6;}
	.st2{fill:#CDCDCD;}
	.st3{fill:url(#SVGID_1_);}
	.st4{fill:url(#SVGID_00000173155733198452210480000008674554243392343985_);}
	.st5{fill:url(#SVGID_00000102508890151361063580000000498584404280275623_);}
	.st6{fill:#181819;}
	.st7{fill:#040405;}
	.st8{fill:#008A97;}
	.st9{fill:#FAC8B8;}
	.st10{fill:#393939;}
	.st11{fill:#C18B52;}
	.st12{opacity:0.75;fill:#E6E6E6;}
	.st13{fill:#263E53;}
	.st14{fill:#516575;}
	.st15{fill:#1C1B20;}
	.st16{fill:#37363B;}
	.st17{fill:#2B2A2F;}
	
		.st18{fill-rule:evenodd;clip-rule:evenodd;fill:#E1E1E1;stroke:#F9F9F9;stroke-width:0.25;stroke-linecap:round;stroke-linejoin:round;}
	.st19{fill:#D5E6F7;}
	.st20{fill:#80357F;}
	.st21{fill:#E52F32;}
	.st22{fill:#435D89;}
	.st23{fill:#C79763;}
	.st24{opacity:0.3;fill:#C18B52;}
	.st25{fill:#D4AE86;}
	.st26{fill:#878787;}
	.st27{fill:#A51627;}
	.st28{fill:#CDA275;}
	.st29{fill:#1D1D1E;}
	.st30{opacity:0.23;}
	.st31{opacity:0.12;}
	.st32{fill:#E7E7E7;}
	.st33{fill:none;}
	.st34{fill:#232828;}
	.st35{fill:#131616;}
	.st36{fill:#343A3A;}
	.st37{fill:#353A4E;}
	.st38{fill:#767D93;}
	.st39{fill:#18191E;}
	.st40{fill:#DECA44;}
	.st41{fill:#F7BF23;}
	.st42{fill:#45464C;}
	.st43{fill:#2C3133;}
	.st44{fill:#1E2123;}
	.st45{fill:#414547;}
	.st46{fill:#131516;}
	.st47{fill:#4F4F50;}
	.st48{fill:#2C3A3F;}
	.st49{fill:#CFCFCF;}
	.st50{fill:#28353A;}
	.st51{fill:#B4B4B4;}
	.st52{fill:#DFC3A5;}
	.st53{fill:#E9D6C2;}
	.st54{opacity:0.4;fill:#393939;}
	.st55{enable-background:new    ;}
	.st56{clip-path:url(#SVGID_00000180350492959560656370000012172622856805012624_);}
	.st57{clip-path:url(#SVGID_00000040544348560947663720000005204429898600086951_);}
	.st58{clip-path:url(#SVGID_00000055690558135149505820000003019530896866744765_);enable-background:new    ;}
	.st59{fill:#EFF2F4;}
	.st60{clip-path:url(#SVGID_00000054948977566836053900000010901112839087095483_);enable-background:new    ;}
	.st61{clip-path:url(#SVGID_00000176020758475004334140000002880901169583662982_);enable-background:new    ;}
	.st62{fill:#B8BBBC;}
	.st63{fill:#808283;}
	.st64{clip-path:url(#SVGID_00000183932524168344802620000006859103284092193186_);enable-background:new    ;}
	.st65{opacity:0.4;fill:#FFFFFF;}
</style>
<path class="st54" d="M227.8,159.3l-102.4,59.5c-2.3,1.4-6.1,1.4-8.5,0l-72.8-42c-1.2-0.7-1.8-1.6-1.8-2.5l0,11
	c0,0.9,0.6,1.8,1.8,2.5l72.8,42c2.3,1.4,6.1,1.4,8.5,0l102.4-59.5c1.2-0.7,1.7-1.6,1.7-2.4l0-11C229.6,157.8,229,158.7,227.8,159.3z
	"/>
<g class="st55">
	<defs>
		<path id="SVGID_00000127749780648759526460000010174147084811513528_" class="st55" d="M152.7,114l0,11c-0.6-0.3-1.5-0.3-2.1,0
			l0-11C151.2,113.7,152.1,113.7,152.7,114z"/>
	</defs>
	<clipPath id="SVGID_00000067956681346531107960000011975181286884347532_">
		<use xlink:href="#SVGID_00000127749780648759526460000010174147084811513528_"  style="overflow:visible;"/>
	</clipPath>
	<g style="clip-path:url(#SVGID_00000067956681346531107960000011975181286884347532_);">
		<path class="st7" d="M152.7,114l0,11c-0.6-0.3-1.5-0.3-2.1,0l0-11C151.2,113.7,152.1,113.7,152.7,114L152.7,114z"/>
	</g>
</g>
<g>
	<polygon class="st7" points="150.6,114 150.5,125 127.7,138.3 127.8,127.3 	"/>
</g>
<g class="st55">
	<defs>
		<path id="SVGID_00000144331360678025644720000017729121215072773306_" class="st55" d="M127.3,138.9l0-11c0-0.2,0.1-0.4,0.4-0.6
			l0,11C127.4,138.5,127.3,138.7,127.3,138.9z"/>
	</defs>
	<clipPath id="SVGID_00000024705108989320974130000010440739085107135123_">
		<use xlink:href="#SVGID_00000144331360678025644720000017729121215072773306_"  style="overflow:visible;"/>
	</clipPath>
	<g style="clip-path:url(#SVGID_00000024705108989320974130000010440739085107135123_);">
		<path class="st11" d="M127.8,127.3l0,11c-0.3,0.2-0.4,0.4-0.4,0.6l0-11C127.3,127.7,127.5,127.5,127.8,127.3L127.8,127.3z"/>
	</g>
</g>
<g class="st55">
	<defs>
		<path id="SVGID_00000104688945579801293860000001026219020464875964_" class="st55" d="M127.3,138.9l0-11c0,0.2,0.1,0.4,0.4,0.6
			l0,11C127.4,139.3,127.3,139.1,127.3,138.9z"/>
	</defs>
	<clipPath id="SVGID_00000062163011016182454720000004035298588932097191_">
		<use xlink:href="#SVGID_00000104688945579801293860000001026219020464875964_"  style="overflow:visible;"/>
	</clipPath>
	<g style="clip-path:url(#SVGID_00000062163011016182454720000004035298588932097191_);enable-background:new    ;">
		<path class="st59" d="M127.8,128.5l0,11c-0.3-0.2-0.4-0.4-0.4-0.6l0-11C127.3,128.1,127.5,128.3,127.8,128.5L127.8,128.5z"/>
	</g>
</g>
<g>
	<polygon class="st7" points="217.5,151.5 217.5,162.4 152.7,125 152.7,114 	"/>
</g>
<g class="st55">
	<defs>
		<path id="SVGID_00000063600043720866877610000007644623146632085422_" class="st55" d="M218,152.1c0,3.7,0,7.3,0,11
			c0-0.2-0.1-0.4-0.4-0.6l0-11C217.8,151.6,218,151.8,218,152.1z"/>
	</defs>
	<clipPath id="SVGID_00000034066513955582033110000017187524000449556153_">
		<use xlink:href="#SVGID_00000063600043720866877610000007644623146632085422_"  style="overflow:visible;"/>
	</clipPath>
	<g style="clip-path:url(#SVGID_00000034066513955582033110000017187524000449556153_);enable-background:new    ;">
		<path class="st7" d="M218,152.1l0,11c0-0.2-0.1-0.4-0.4-0.6l0-11C217.8,151.6,218,151.8,218,152.1L218,152.1z"/>
	</g>
</g>
<g class="st55">
	<defs>
		<path id="SVGID_00000170980877758197351710000013969331917415540656_" class="st55" d="M218,152.1c0,3.7,0,7.3,0,11
			c0,0.2-0.1,0.4-0.4,0.6l0-11C217.8,152.5,218,152.3,218,152.1z"/>
	</defs>
	<clipPath id="SVGID_00000096042338212065583710000001627666053958885777_">
		<use xlink:href="#SVGID_00000170980877758197351710000013969331917415540656_"  style="overflow:visible;"/>
	</clipPath>
	<g style="clip-path:url(#SVGID_00000096042338212065583710000001627666053958885777_);enable-background:new    ;">
		<path class="st59" d="M218,152.1l0,11c0,0.2-0.1,0.4-0.4,0.6l0-11C217.8,152.5,218,152.3,218,152.1L218,152.1z"/>
	</g>
</g>
<g>
	<polygon class="st62" points="217.5,152.7 217.5,163.7 194.7,176.9 194.7,165.9 	"/>
</g>
<g>
	<polygon class="st63" points="192.6,165.9 192.6,176.9 127.7,139.5 127.8,128.5 	"/>
</g>
<g class="st55">
	<defs>
		<path id="SVGID_00000022533466783357143890000017212496281707001760_" class="st55" d="M194.7,165.9l0,11c-0.6,0.3-1.5,0.3-2.1,0
			l0-11C193.2,166.3,194.1,166.3,194.7,165.9z"/>
	</defs>
	<clipPath id="SVGID_00000157281397733731845760000000126247884184429457_">
		<use xlink:href="#SVGID_00000022533466783357143890000017212496281707001760_"  style="overflow:visible;"/>
	</clipPath>
	<g style="clip-path:url(#SVGID_00000157281397733731845760000000126247884184429457_);enable-background:new    ;">
		<path class="st59" d="M194.7,165.9l0,11c-0.6,0.3-1.5,0.3-2.1,0l0-11C193.2,166.3,194.1,166.3,194.7,165.9L194.7,165.9z"/>
	</g>
</g>
<g>
	<path class="st1" d="M217.5,154c0.6,0.3,0.6,0.9,0,1.2l-22.8,13.3c-0.6,0.3-1.5,0.3-2.1,0L127.8,131c-0.6-0.3-0.6-0.9,0-1.2
		l22.8-13.3c0.6-0.3,1.5-0.3,2.1,0L217.5,154z"/>
</g>
<g>
	<path class="st10" d="M227.8,150.1c2.3,1.4,2.4,3.6,0,4.9l-102.4,59.5c-2.3,1.4-6.1,1.4-8.5,0l-72.8-42c-2.4-1.4-2.4-3.6,0-4.9
		l102.4-59.5c2.3-1.4,6.1-1.4,8.5,0L227.8,150.1z M194.7,165.9l22.8-13.3c0.6-0.3,0.6-0.9,0-1.2L152.7,114c-0.6-0.3-1.5-0.3-2.1,0
		l-22.8,13.3c-0.6,0.3-0.6,0.9,0,1.2l64.8,37.4C193.2,166.3,194.1,166.3,194.7,165.9L194.7,165.9z"/>
</g>
<path class="st47" d="M227.8,155l-102.4,59.5c-2.3,1.4-6.1,1.4-8.5,0l-72.8-42c-1.2-0.7-1.8-1.6-1.8-2.5l0,11c0,0.9,0.6,1.8,1.8,2.5
	l72.8,42c2.3,1.4,6.1,1.4,8.5,0L227.8,166c1.2-0.7,1.7-1.6,1.7-2.4l0-11C229.6,153.5,229,154.3,227.8,155z"/>
<g>
	<g class="st55">
		<g>
			<path class="st0" d="M137,140.4c0.6,0.3,0.6,0.9,0,1.2l-9.3,5.4c-0.6,0.3-1.5,0.3-2.1,0l-17.9-10.3c-0.6-0.3-0.6-0.9,0-1.2
				l9.3-5.4c0.6-0.3,1.5-0.3,2.1,0L137,140.4z"/>
		</g>
	</g>
	<g class="st55">
		<g>
			<path class="st0" d="M161.7,154.7c0.6,0.3,0.6,0.9,0,1.2l-9.3,5.4c-0.6,0.3-1.5,0.3-2.1,0L132.4,151c-0.6-0.3-0.6-0.9,0-1.2
				l9.3-5.4c0.6-0.3,1.5-0.3,2.1,0L161.7,154.7z"/>
		</g>
	</g>
	<g class="st55">
		<g>
			<path class="st0" d="M121.1,149.6c0.6,0.3,0.6,0.9,0,1.2l-9.3,5.4c-0.6,0.3-1.5,0.3-2.1,0l-17.9-10.3c-0.6-0.3-0.6-0.9,0-1.2
				l9.3-5.4c0.6-0.3,1.5-0.3,2.1,0L121.1,149.6z"/>
		</g>
	</g>
	<g class="st55">
		<g>
			<path class="st0" d="M145.9,163.9c0.6,0.3,0.6,0.9,0,1.2l-9.3,5.4c-0.6,0.3-1.5,0.3-2.1,0l-17.9-10.3c-0.6-0.3-0.6-0.9,0-1.2
				l9.3-5.4c0.6-0.3,1.5-0.3,2.1,0L145.9,163.9z"/>
		</g>
	</g>
	<g class="st55">
		<g>
			<path class="st0" d="M105.3,158.8c0.6,0.3,0.6,0.9,0,1.2l-9.3,5.4c-0.6,0.3-1.5,0.3-2.1,0L76,155.1c-0.6-0.3-0.6-0.9,0-1.2
				l9.3-5.4c0.6-0.3,1.5-0.3,2.1,0L105.3,158.8z"/>
		</g>
	</g>
	<g class="st55">
		<g>
			<path class="st0" d="M130,173.1c0.6,0.3,0.6,0.9,0,1.2l-9.3,5.4c-0.6,0.3-1.5,0.3-2.1,0l-17.9-10.3c-0.6-0.3-0.6-0.9,0-1.2
				l9.3-5.4c0.6-0.3,1.5-0.3,2.1,0L130,173.1z"/>
		</g>
	</g>
	<g class="st55">
		<g>
			<path class="st0" d="M186.5,169c0.6,0.3,0.6,0.9,0,1.2l-9.3,5.4c-0.6,0.3-1.5,0.3-2.1,0l-17.9-10.3c-0.6-0.3-0.6-0.9,0-1.2
				l9.3-5.4c0.6-0.3,1.5-0.3,2.1,0L186.5,169z"/>
		</g>
	</g>
	<g class="st55">
		<g>
			<path class="st0" d="M170.6,178.2c0.6,0.3,0.6,0.9,0,1.2l-9.3,5.4c-0.6,0.3-1.5,0.3-2.1,0l-17.9-10.3c-0.6-0.3-0.6-0.9,0-1.2
				l9.3-5.4c0.6-0.3,1.5-0.3,2.1,0L170.6,178.2z"/>
		</g>
	</g>
	<g class="st55">
		<g>
			<path class="st0" d="M154.8,187.4c0.6,0.3,0.6,0.9,0,1.2l-9.3,5.4c-0.6,0.3-1.5,0.3-2.1,0l-17.9-10.3c-0.6-0.3-0.6-0.9,0-1.2
				l9.3-5.4c0.6-0.3,1.5-0.3,2.1,0L154.8,187.4z"/>
		</g>
	</g>
	<g class="st55">
		<g>
			<path class="st0" d="M87.3,169.2c0.6,0.3,0.6,0.9,0,1.2l-9.3,5.4c-0.6,0.3-1.5,0.3-2.1,0L58,165.5c-0.6-0.3-0.6-0.9,0-1.2
				l9.3-5.4c0.6-0.3,1.5-0.3,2.1,0L87.3,169.2z"/>
		</g>
	</g>
	<g class="st55">
		<g>
			<path class="st0" d="M136.9,197.8c0.6,0.3,0.6,0.9,0,1.2l-9.3,5.4c-0.6,0.3-1.5,0.3-2.1,0l-42.7-24.6c-0.6-0.3-0.6-0.9,0-1.2
				l9.3-5.4c0.6-0.3,1.5-0.3,2.1,0L136.9,197.8z"/>
		</g>
	</g>
</g>
<g>
	<path class="st65" d="M107.6,139.1l17.9,10.3c0.6,0.3,1.5,0.3,2.1,0l9.3-5.4c0.3-0.2,0.4-0.4,0.4-0.6l0-2.4c0,0.2-0.1,0.4-0.4,0.6
		l-9.3,5.4c-0.6,0.3-1.5,0.3-2.1,0l-17.9-10.3c-0.3-0.2-0.4-0.4-0.4-0.6l0,2.4C107.2,138.7,107.3,138.9,107.6,139.1z"/>
	<path class="st65" d="M132,150.3l0,2.4c0,0.2,0.2,0.5,0.4,0.6l17.9,10.3c0.6,0.3,1.5,0.3,2.1,0l9.3-5.4c0.3-0.2,0.4-0.4,0.4-0.6
		l0-2.4c0,0.2-0.1,0.4-0.4,0.6l-9.3,5.4c-0.6,0.3-1.5,0.3-2.1,0L132.4,151C132.1,150.8,132,150.6,132,150.3z"/>
	<path class="st65" d="M91.8,148.3l17.9,10.3c0.6,0.3,1.5,0.3,2.1,0l9.3-5.4c0.3-0.2,0.4-0.4,0.4-0.6l0-2.4c0,0.2-0.1,0.4-0.4,0.6
		l-9.3,5.4c-0.6,0.3-1.5,0.3-2.1,0l-17.9-10.3c-0.3-0.2-0.5-0.4-0.5-0.6l0,2.4C91.4,147.9,91.5,148.1,91.8,148.3z"/>
	<path class="st65" d="M136.6,172.9l9.3-5.4c0.3-0.2,0.4-0.4,0.4-0.6l0-2.4c0,0.2-0.1,0.4-0.4,0.6l-9.3,5.4c-0.6,0.3-1.5,0.3-2.1,0
		l-17.9-10.3c-0.3-0.2-0.5-0.4-0.5-0.6l0,2.4c0,0.2,0.2,0.5,0.5,0.6l17.9,10.3C135,173.3,136,173.3,136.6,172.9z"/>
	<path class="st65" d="M76,157.5l17.9,10.3c0.6,0.3,1.5,0.3,2.1,0l9.3-5.4c0.3-0.2,0.4-0.4,0.4-0.6l0-2.4c0,0.2-0.1,0.4-0.4,0.6
		l-9.3,5.4c-0.6,0.3-1.5,0.3-2.1,0L76,155.1c-0.3-0.2-0.4-0.4-0.4-0.6l0,2.4C75.5,157.1,75.7,157.4,76,157.5z"/>
	<path class="st65" d="M120.7,179.7c-0.6,0.3-1.5,0.3-2.1,0l-17.9-10.3c-0.3-0.2-0.4-0.4-0.4-0.6l0,2.4c0,0.2,0.2,0.5,0.4,0.6
		l17.9,10.3c0.6,0.3,1.5,0.3,2.1,0l9.3-5.4c0.3-0.2,0.4-0.4,0.4-0.6l0-2.4c0,0.2-0.1,0.4-0.4,0.6L120.7,179.7z"/>
	<path class="st65" d="M186.5,170.2l-9.3,5.4c-0.6,0.3-1.5,0.3-2.1,0l-17.9-10.3c-0.3-0.2-0.4-0.4-0.4-0.6l0,2.4
		c0,0.2,0.1,0.4,0.4,0.6l17.9,10.3c0.6,0.3,1.5,0.3,2.1,0l9.3-5.4c0.3-0.2,0.4-0.4,0.4-0.6l0-2.4C186.9,169.8,186.8,170,186.5,170.2
		z"/>
	<path class="st65" d="M170.6,179.4l-9.3,5.4c-0.6,0.3-1.5,0.3-2.1,0l-17.9-10.3c-0.3-0.2-0.4-0.4-0.4-0.6l0,2.4
		c0,0.2,0.1,0.4,0.4,0.6l17.9,10.3c0.6,0.3,1.5,0.3,2.1,0l9.3-5.4c0.3-0.2,0.4-0.4,0.4-0.6l0-2.4C171.1,179,170.9,179.2,170.6,179.4
		z"/>
	<path class="st65" d="M154.8,188.6l-9.3,5.4c-0.6,0.3-1.5,0.3-2.1,0l-17.9-10.3c-0.3-0.2-0.4-0.4-0.4-0.6l0,2.4
		c0,0.2,0.1,0.4,0.4,0.6l17.9,10.3c0.6,0.3,1.5,0.3,2.1,0l9.3-5.4c0.3-0.2,0.4-0.4,0.4-0.6l0-2.4
		C155.2,188.2,155.1,188.4,154.8,188.6z"/>
	<path class="st65" d="M87.8,172.3l0-2.4c0,0.2-0.1,0.4-0.4,0.6l-9.3,5.4c-0.6,0.3-1.5,0.3-2.1,0L58,165.5c-0.3-0.2-0.4-0.4-0.4-0.6
		l0,2.4c0,0.2,0.2,0.5,0.4,0.6l17.9,10.3c0.6,0.3,1.5,0.3,2.1,0l9.3-5.4C87.6,172.7,87.8,172.5,87.8,172.3z"/>
	<path class="st65" d="M136.9,199.1l-9.3,5.4c-0.6,0.3-1.5,0.3-2.1,0l-42.7-24.6c-0.3-0.2-0.4-0.4-0.4-0.6l0,2.4
		c0,0.2,0.1,0.5,0.4,0.6l42.7,24.6c0.6,0.3,1.5,0.3,2.1,0l9.3-5.4c0.3-0.2,0.4-0.4,0.4-0.6l0-2.4
		C137.3,198.7,137.2,198.9,136.9,199.1z"/>
</g>
<g>
	<path d="M193.4,163.4c-0.9-0.6-1.9-1.1-2.8-1.7c-0.4-0.2-0.6-0.5-0.8-0.8c-0.5-0.8,0.2-1.7,1.5-2.5c0.5-0.3,1-0.6,1.5-0.9
		c4.4-2.4,8.9-4.7,13.4-7.1c0.1-0.1,0.3-0.1,0.4-0.2c0.8,0.4,1.6,0.9,2.4,1.3c-1,0.5-1.9,1-3,1.6c1,0.5,2,1.1,3,1.6
		c-1.2,0.6-2.3,1.3-3.5,1.9c-1-0.5-2-1.1-3-1.6c-0.2,0.1-0.3,0.2-0.4,0.2c-2.2,1.2-4.5,2.4-6.7,3.6c-0.2,0.1-0.3,0.2-0.5,0.3
		c-0.7,0.4-0.8,0.8-0.3,1.1c0.8,0.4,1.5,0.9,2.3,1.3C195.7,162.1,194.6,162.7,193.4,163.4z"/>
	<path d="M148.8,125.3c0.9,0.5,1.7,1,2.6,1.4c1.9,1.1,3.9,2.1,5.8,3.2c0.1,0,0.2,0.1,0.3,0.1c-1.2,0.5-2.4,0.9-3.6,1.4
		c-2.9-1.6-5.8-3.2-8.8-4.9C146.4,126.1,147.6,125.7,148.8,125.3z"/>
	<path d="M142.5,127.5c2.9,1.6,5.8,3.3,8.8,4.9c-1.2,0.5-2.4,0.9-3.6,1.4c-0.1-0.1-0.2-0.1-0.3-0.2c-2.7-1.6-5.5-3.1-8.2-4.7
		c-0.1-0.1-0.2-0.1-0.3-0.1C140.1,128.4,141.3,128,142.5,127.5z"/>
	<path d="M184.3,147.8c0.5-0.3,1-0.6,1.3-0.9c0.7-0.5,0.5-0.9,0-1.2c-1-0.6-2.1-1.2-3.1-1.7c-0.5-0.3-1-0.6-1.5-0.8
		c-0.1-0.1-0.2-0.1,0-0.2c1.1-0.5,2.2-1,3.3-1.5c0.1,0,0.2,0.1,0.3,0.1c1.4,0.8,2.8,1.5,4.3,2.3c0.7,0.4,1.3,0.8,1.6,1.3
		c0.6,0.9-0.2,1.9-1.9,3c-0.6,0.3-1.2,0.7-1.8,1c-3.1,1.5-6.3,3.1-9.4,4.6c-0.1,0.1-0.2,0.1-0.3,0.2c-0.1,0-0.2-0.1-0.2-0.1
		c-2-1.2-4.1-2.4-6.1-3.6c-0.4-0.3-0.7-0.6-0.9-0.9c-0.4-0.9,0.3-1.7,1.8-2.6c0.7-0.4,1.6-0.8,2.5-1.1c2.1-0.7,4-0.8,5.5-0.2
		c0.4,0.2,0.8,0.3,1.2,0.5c1,0.6,2.1,1.1,3.1,1.7C184,147.7,184.1,147.7,184.3,147.8z M180.8,149.5c-1.3-0.7-2.4-1.4-3.7-2.1
		c-0.4-0.2-0.9-0.2-1.6,0c-1.2,0.4-1.6,0.9-1,1.3c1.1,0.7,2.3,1.3,3.4,2c0.1,0,0.3,0,0.4,0C179.1,150.3,179.9,149.9,180.8,149.5z"/>
	<path d="M171.7,134.7c-1.2,0.5-2.4,1-3.6,1.5c-0.1-0.1-0.2-0.1-0.3-0.2c-1.4-0.8-2.8-1.5-4.2-2.3c-1-0.5-2.5-0.5-4.1,0.1
		c-0.1,0-0.1,0.1-0.2,0.1c0.1,0.1,0.2,0.1,0.3,0.2c1.6,0.9,3.2,1.8,4.9,2.7c0.2,0.1,0.2,0.2-0.2,0.3c-0.9,0.4-1.9,0.8-2.8,1.2
		c-0.1,0-0.2,0.1-0.4,0.2c-1.8-1-3.6-2-5.4-3c-1.3,0.5-1.8,1.2-1.1,1.8c0.2,0.2,0.5,0.4,0.8,0.5c1.2,0.7,2.5,1.4,3.7,2.1
		c0.1,0,0.2,0.1,0.3,0.1c-1.2,0.5-2.4,1-3.6,1.5c-0.1,0-0.2-0.1-0.2-0.1c-1.5-0.9-3.1-1.8-4.6-2.7c-0.5-0.3-0.9-0.7-1.1-1.1
		c-0.6-0.9,0.2-1.8,1.7-2.7c1.2-0.7,2.7-1.3,4.2-1.9c1.1-0.4,2.3-0.8,3.5-1.1c2.8-0.7,5.2-0.7,7,0c0.5,0.2,1.1,0.5,1.5,0.7
		c1.3,0.7,2.5,1.3,3.7,2C171.5,134.6,171.6,134.6,171.7,134.7z"/>
	<path d="M172.7,135.2c1,0.5,1.9,1,2.9,1.5c0.1,0,0,0.1,0,0.2c-0.7,1-1.5,2-2.2,3c0,0.1-0.1,0.1-0.1,0.2c0.8-0.1,1.6-0.2,2.3-0.3
		c1.5-0.2,2.9-0.4,4.4-0.6c0.3,0,0.5,0,0.6,0.1c0.8,0.4,1.6,0.9,2.4,1.3c0.1,0,0.1,0.1,0.2,0.1c-0.2,0-0.4,0.1-0.5,0.1
		c-3.5,0.5-7,0.9-10.5,1.3c-0.4,0-0.5,0.1-0.7,0.3c-1.3,1.8-2.6,3.6-3.9,5.5c-0.1,0.1-0.1,0.2-0.2,0.3c-0.1,0-0.2-0.1-0.2-0.1
		c-0.9-0.5-1.7-1-2.6-1.5c-0.1-0.1-0.2-0.2-0.1-0.3c0.8-1.1,1.6-2.2,2.3-3.3c0.1-0.1,0.1-0.1,0.2-0.2c-0.2,0-0.4,0-0.5,0.1
		c-2.2,0.2-4.5,0.5-6.7,0.7c-0.3,0-0.4,0-0.6-0.1c-0.9-0.5-1.7-1-2.7-1.6c4.1-0.4,8.1-0.8,12.1-1.3
		C170,138.9,171.3,137.1,172.7,135.2z"/>
	<path d="M190,157.5c-1.2,0.6-2.3,1.2-3.5,1.8c-0.1,0-0.2-0.1-0.2-0.1c-1.3-0.7-2.6-1.5-3.9-2.2c-0.6-0.3-1-0.7-1.2-1.2
		c-0.4-1,0.3-2,1.7-3c1.2-0.8,2.6-1.6,4.1-2.3c1.1-0.5,2.2-1,3.5-1.4c2.8-0.9,5.2-1.1,7-0.4c1.2,0.5,2.3,1.1,3.4,1.7
		c0.5,0.2,0.9,0.5,1.3,0.7c-0.3,0.2-0.6,0.3-0.9,0.5c-0.8,0.4-1.5,0.8-2.3,1.2c-0.3,0.2-0.4,0.2-0.6,0.1c-1.1-0.6-2.2-1.2-3.3-1.8
		c-0.2-0.1-0.6-0.2-0.9-0.3c-0.8-0.2-1.8,0-2.8,0.3c-1.9,0.7-3.5,1.5-4.8,2.4c-1.1,0.8-1.1,1.5-0.2,2c1.1,0.6,2.2,1.3,3.3,1.9
		C189.8,157.4,189.9,157.4,190,157.5z"/>
</g>
<g>
	<g>
		<g>
			<g>
				<g>
					<g>
						<path class="st9" d="M136.7,145.3c0,0.5,0,1.1,0,1.7c0.5-0.9,1.1-1.8,1.6-2.9c0.4,1.3,0.7,2.8,0.7,3c0,0,1.9,0.3,2.3-1.1
							c0.4-1.4-2-5.5-3.4-5.8c-0.5-0.1-0.9-0.1-1.2-0.1l-0.5,0.8l-0.7,0.3C136.1,141.9,136.7,143.1,136.7,145.3z"/>
					</g>
				</g>
				<g>
					<g>
						<path class="st7" d="M140.9,149.6c0.5,0.2,0.9,0.2,1.2,0.2c1.1-0.3,1.7-3.2,0.9-5.4c-0.2-0.4-0.6-1-1.3-1.6
							c-0.3-0.3-0.7-0.6-1-1c0,0,0-0.1-0.1-0.1c-0.6-1-1.3-2.4-2.2-2.4c0.2,0.2,0.5,0.4,0.7,0.7c1,1.4,1.3,2,1.3,2s1.8,1.4,2.3,2.8
							c0.6,1.4,0,3.9-0.7,4.4C141.6,149.5,141.3,149.6,140.9,149.6z"/>
					</g>
					<g>
						<path class="st7" d="M139,147.1c0.4,1.5,1.2,2.1,1.8,2.4c0.4,0,0.7-0.1,1.1-0.3c0.7-0.5,1.3-3,0.7-4.4
							c-0.6-1.4-2.3-2.8-2.3-2.8s-0.3-0.7-1.3-2c-0.2-0.3-0.4-0.5-0.7-0.7c0,0,0,0,0,0c-1,0-1.3,0.4-1.3,0.4l-0.3,0.6
							c0.3,0,0.7,0,1.2,0.1c1.4,0.3,3.8,4.4,3.4,5.8C140.9,147.5,139,147.1,139,147.1z"/>
					</g>
				</g>
			</g>
			<g>
				<g>
					<path class="st9" d="M86.1,186.8c1.5,0.9,2.9-1.3,3.5-2.7l0,0c0.1-1.4,0.4-3.1,0.7-4.7c0-0.2,0.7-2,1.1-3.4c0,0,0.2-0.3,0.5-1
						c-1.1,0.1-2.5-0.1-3.9-1l0,0c0.1,1.5,0.2,2.8,0.3,3.9l-0.3,1l-2.5,4.5C85.4,184.9,85.3,186.4,86.1,186.8z"/>
				</g>
				<g>
					<g>
						<path class="st7" d="M85,190.2c1.3,2.2,3.4-0.3,4.3-3.2c-0.8,1.6-1.9,3.4-3,3.4c-1.1,0-1.6-2.2-1.8-4.1
							C84.2,188.1,84.6,189.4,85,190.2z"/>
					</g>
					<g>
						<path class="st7" d="M86.3,190.4c1.1,0,2.2-1.8,3-3.4c0.1-0.4,0.2-0.8,0.3-1.3c0-0.5,0-1,0.1-1.6c-0.6,1.5-2,3.6-3.5,2.7
							c-0.8-0.5-0.8-2-0.6-3.3l-0.3,0.6c-0.4,0.8-0.6,1.6-0.7,2.3c0,0,0,0,0,0C84.7,188.3,85.2,190.5,86.3,190.4z"/>
					</g>
				</g>
			</g>
		</g>
		<g>
			<g>
				<path class="st11" d="M87.1,173.2l0.9,0.9l0,0c1.2,0.8,2.5,1,3.5,1c0.1,0,0.3,0,0.4,0c0.2-0.4,0.4-0.9,0.6-1.6c0,0,0,0,0,0
					c2.2-6.2,7.3-21.6,8.1-23.9c3.1-8.4,14-23.5,14.1-23.6c0,0.2,2.1,8.4,3.3,15.8c2.4,14.6,5.9,13.9,7.6,14
					c2.7,0.1,6.6-2.5,9.3-6.2c0.4-0.5,1-1.5,1.6-2.6c0-0.6,0.1-1.1,0-1.7c0-0.9-0.1-1.5-0.3-2.1c-0.1-0.2-0.1-0.4-0.2-0.6
					c-0.2-0.6-0.5-1-0.8-1.2l-3.8,1.7c0-4.7,1.2-11.7,1.7-17.8c0.2-2.8,0.2-7-0.1-9.9c-0.1-1.1-0.2-2-0.3-2.5l-3.4-3.6l-0.1,0.7
					l-0.3,2.2l-0.8,5.2l-0.5,3.2c0,0-2.1,1-6.7,1.3c-2.4,0.1-5.4,0.1-9.1-0.3c-2.6-0.3-4.9-0.9-6.9-1.6c-4.9-1.7-7.9-4.1-9-5.1
					c-2.7,7.8-5,18.3-6.7,28.7C87.9,151.8,86.8,165.2,87.1,173.2z"/>
			</g>
		</g>
		<g>
			<g>
				<path class="st7" d="M95.6,114.2c0,0,0.2,0.2,0.5,0.5c1.6,1.4,7,5.6,16,6.7c10.9,1.3,15.8-0.9,15.8-0.9l1.7-11.3l3.4,3.6l2.9,3
					c0,0-9.1-18.2-9.6-24.8c-0.1-1.6-0.1-3.6-0.1-5.6c0.1-6.5,0.9-13.9,0.9-14.1l0,0c0,0-4-0.8-13.6-1.7c-9.6-0.9-18.2,1.4-18.2,1.4
					l0,0c0.1,0.3,1.5,5.3,2.6,12.7c0.4,2.7,0.7,5.8,0.9,9C99.3,104.9,95.6,114.2,95.6,114.2z"/>
			</g>
		</g>
		<g>
			<g>
				<g>
					<path class="st9" d="M76.6,72.7c3.6,5.5,18.5,7.9,20.8,7.9c-0.9-5.6-2-9.3-2.1-9.6l0,0c0,0-10.6-1.4-12.5-3
						c-1.5-1.2-1.2-6.2-1.2-6.2c0.1-2.2,0.5-4.6,0.7-5.8c0.6-0.3,2.2-1.2,3.2-2.2c0.6-0.6,1.3-1.4,2-2.1c0.4-0.4,0.2-0.5,0.2-0.5
						c-1-0.2-2.6,1.6-2.8,1.6c-0.2,0-0.2-0.1,0.1-1.1c0.1-0.2,0.1-0.5,0.2-0.8c0.4-1.7,2.2-4.6,1.8-4.7c-0.7-0.1-2.4,4.4-2.7,4.2
						c-0.3-0.2,1.3-4.8,0.9-5.1c-0.4-0.3-1.7,4.9-2.1,4.6c-0.4-0.3,1.1-4.2,0.6-4.5c-0.5-0.3-1.7,4.7-1.9,4.4
						c-0.2-0.3,0.3-3.2,0-3.4c-0.3-0.2-1,3.6-1.1,5.8c-0.1,2.1,0.1,3.6,0.1,3.6s0,0,0,0c0,0-0.1,0.2-0.1,0.4
						c-0.1,0.1-0.2,0.3-0.2,0.5c0,0,0,0,0,0c-0.1,0.2-0.2,0.5-0.4,0.8c-0.9,2-2.4,5.2-2.9,6.4C76.1,65.6,75.3,70.6,76.6,72.7z"/>
				</g>
			</g>
			<g>
				<g>
					<path class="st9" d="M125,71l2.3-1.6c0,0,8.9-7,10.3-10.7c3.9-9.8,2.3-25.2,2.1-26.6c-0.6-0.3-2.2-1.1-3.2-2.1
						c-0.6-0.6-1.4-1.4-2.1-2.1c-0.4-0.4-0.2-0.5-0.2-0.5c1-0.2,2.6,1.6,2.9,1.5c0.2,0,0.2-0.1-0.1-1.1c-0.1-0.2-0.1-0.5-0.2-0.8
						c-0.5-1.7-2.3-4.6-1.9-4.6c0.7-0.2,2.5,4.3,2.8,4.1c0.3-0.2-1.5-4.8-1-5c0.4-0.3,1.8,4.9,2.2,4.6c0.4-0.3-1.2-4.2-0.7-4.5
						c0.5-0.3,1.8,4.7,2,4.4c0.2-0.3-0.3-3.2-0.1-3.4c0.3-0.2,1.1,3.6,1.2,5.7c0.1,2.1,0,3.6,0,3.6s5.3,11,5.6,21
						c0.4,7.6-4.7,15.4-9.4,20.3c-5.2,5.4-11.3,9.4-11.3,9.2C126.5,76.8,125,71.1,125,71z"/>
				</g>
			</g>
		</g>
		<g>
			<g>
				<path class="st7" d="M125.7,59.8c0,0,0.7,3.8-0.8,5.4c0,0-0.1,0.1-0.1,0.1c-1.5,1.6-5,3.7-5,3.7c-0.3,0.2-0.9,0.4-1.5,0.6
					c-1.4,0.4-3.4,0.7-5.7,0c-3.4-1-7.2-3.5-8.8-5.8c-1.6-2.3-1.7-5.6-1.7-5.6s-1.4-2.9-1.4-4.2c0-1.3,1.4-2.8,1.4-2.8
					s-0.1-1.5,0.2-2.3c0.3-0.8,2.6-5.1,5.2-5.6c2.6-0.5,4.3,0.3,4.3,0.3s1.4-0.7,3.1-0.4c1.7,0.4,2.4,1,2.4,1s3.1,1,4.7,2.3
					c1.6,1.3,1.7,3.5,1.7,3.5s1.4,1.9,2.5,4.9C127.2,57.9,125.7,59.8,125.7,59.8z"/>
			</g>
			<g>
				<path class="st9" d="M101.3,70c0,0,4.2-0.7,6.1-1l0.3-4.3c-0.6-0.1-1-0.3-1.4-0.5c-1-0.6-2.5-3.2-1.9-6.1
					c0.4-1.8,1.4-3.2,1.4-3.2s0.6-1.1,2-1c1.7,0.1,3.6,0.7,4.6,1.7c0.9,0.9,1,2.2,1,2.6c0,0.9,0.3,1.3,0.5,1.7c0.2,0.4,1,0.9,1,0.9
					c-0.4,0.7-1.3,0.4-1.3,0.4s-0.3,1-1.3,2l1.1,5.5c1.5,0.6,7,1.6,9.3,2.1c-0.6,1-4.6,7.9-13.3,7.4c-4.5-0.3-6.9-2.8-7.5-4.5
					C101.3,71.6,101.2,70.2,101.3,70z"/>
			</g>
		</g>
	</g>
</g>
</svg>
